<?xml version="1.0" encoding="UTF-8" standalone="no"?><!DOCTYPE svg PUBLIC "-//W3C//DTD SVG 1.1//EN" "http://www.w3.org/Graphics/SVG/1.1/DTD/svg11.dtd"><svg width="100%" height="100%" viewBox="0 0 2584 884" version="1.1" xmlns="http://www.w3.org/2000/svg" xmlns:xlink="http://www.w3.org/1999/xlink" xml:space="preserve" xmlns:serif="http://www.serif.com/" style="fill-rule:evenodd;clip-rule:evenodd;stroke-linejoin:round;stroke-miterlimit:2;"><g><path d="M30.171,673.554l53.516,0l0,122.509l96.209,-122.509l396.304,0l-0,-489.475l-273.008,-146.512l-273.021,146.512l-0,489.475Zm23.346,209.779l-0,-179.608l-53.517,0l-0,-537.696l303.192,-162.704l303.179,162.704l-0,537.696l-411.809,0l-141.045,179.608Z" style="fill:#ec008c;fill-rule:nonzero;"/><path d="M96.988,548.958l14.837,0l-0,35.613l13.3,-0l0,-83.1l-13.3,-0l-0,35.617l-14.837,-0l-0,-35.617l-13.059,-0l0,83.1l13.059,-0l-0,-35.613Zm53.062,-35.612l22.558,-0l0,-11.875l-35.616,-0l-0,83.1l35.616,-0l0,-11.871l-22.558,-0l0,-24.333l17.929,-0l0,-11.875l-17.929,-0l0,-23.146Zm33.004,71.225l13.059,-0l-0,-83.1l-13.059,-0l0,83.1Zm42.975,-83.1l-18.166,-0l-0,83.1l11.4,-0l-0,-58.763l0.233,0l9.5,58.763l12.346,-0l8.783,-59.592l0.238,0l-0,59.592l12.345,-0l0,-83.1l-18.162,-0l-8.783,59.004l-0.238,-0l-9.496,-59.004Zm77.517,-0l-19.113,-0l-13.296,83.1l11.992,-0l2.254,-15.075l16.025,-0l2.259,15.075l13.175,-0l-13.296,-83.1Zm-10.329,14.721l0.237,-0l6.175,42.025l-12.583,-0l6.171,-42.025Zm23.745,-2.846l13.651,-0l-0,71.225l13.058,-0l-0,-71.225l13.654,-0l0,-11.875l-40.363,-0l0,11.875Zm61.492,-0l22.554,-0l0,-11.875l-35.612,-0l-0,83.1l35.612,-0l0,-11.871l-22.554,-0l0,-24.333l17.925,-0l0,-11.875l-17.925,-0l0,-23.146Zm29.204,-0l13.65,-0l0,71.225l13.063,-0l-0,-71.225l13.65,-0l-0,-11.875l-40.363,-0l0,11.875Z" style="fill:#ec008c;fill-rule:nonzero;"/><path d="M117.646,468.187l17.329,0l9.258,-83.1l-11.395,0l-6.646,66.005l-0.242,-0l-6.404,-66.005l-12.588,0l-6.171,65.53l-0.241,-0l-6.879,-65.53l-12.705,0l9.259,83.1l17.925,0l4.629,-44.279l0.237,0l4.634,44.279Zm48.554,-71.229l22.554,0l0,-11.871l-35.612,0l-0,83.1l35.612,0l0,-11.87l-22.554,-0l0,-24.338l17.921,0l-0,-11.871l-17.921,0l0,-23.15Z" style="fill:#005f54;fill-rule:nonzero;"/><path d="M111.825,351.8l13.417,-0l-0,-83.1l-11.638,0l0,49.742l-0.237,-0l-13.175,-49.742l-16.384,0l0,83.1l11.754,-0l0,-60.188l0.238,0l16.025,60.188Zm37.512,-63.988c0,-5.937 2.613,-8.191 6.767,-8.191c4.154,-0 6.767,2.254 6.767,8.191l-0,44.876c-0,5.933 -2.613,8.191 -6.767,8.191c-4.154,0 -6.767,-2.258 -6.767,-8.191l0,-44.876Zm-13.058,44.042c0,13.296 7.004,20.896 19.825,20.896c12.821,0 19.825,-7.6 19.825,-20.896l0,-43.212c0,-13.296 -7.004,-20.892 -19.825,-20.892c-12.821,-0 -19.825,7.596 -19.825,20.892l0,43.212Zm91.409,19.946c-1.305,-3.088 -1.425,-6.054 -1.425,-10.092l-0,-12.821c-0,-8.666 -2.134,-14.837 -8.663,-17.57l-0,-0.238c5.817,-2.729 8.546,-8.192 8.546,-16.737l-0,-6.53c-0,-12.82 -5.817,-19.112 -19.35,-19.112l-19.708,0l-0,83.1l13.058,-0l-0,-33.833l4.512,-0c5.938,-0 8.546,2.85 8.546,10.566l0,13.059c0,6.766 0.475,8.071 1.188,10.208l13.296,-0Zm-21.251,-71.229c4.63,-0 6.65,2.612 6.65,8.546l0,8.191c0,6.65 -2.966,8.788 -7.837,8.788l-5.104,-0l-0,-25.525l6.291,-0Zm31.105,71.229l20.654,-0c13.062,-0 19.471,-7.242 19.471,-20.537l-0,-42.025c-0,-13.296 -6.409,-20.538 -19.471,-20.538l-20.654,0l-0,83.1Zm20.416,-71.229c4.159,-0 6.65,2.137 6.65,8.071l0,43.212c0,5.938 -2.491,8.075 -6.65,8.075l-7.358,0l0,-59.358l7.358,-0Zm71.35,71.229c-1.308,-3.088 -1.425,-6.054 -1.425,-10.092l0,-12.821c0,-8.666 -2.137,-14.837 -8.666,-17.57l-0,-0.238c5.816,-2.729 8.546,-8.192 8.546,-16.737l-0,-6.53c-0,-12.82 -5.817,-19.112 -19.351,-19.112l-19.708,0l0,83.1l13.063,-0l-0,-33.833l4.508,-0c5.937,-0 8.55,2.85 8.55,10.566l-0,13.059c-0,6.766 0.475,8.071 1.188,10.208l13.295,-0Zm-21.25,-71.229c4.629,-0 6.646,2.612 6.646,8.546l0,8.191c0,6.65 -2.966,8.788 -7.833,8.788l-5.104,-0l-0,-25.525l6.291,-0Zm44.159,35.616l14.841,0l0,35.613l13.296,-0l0,-83.1l-13.296,0l0,35.613l-14.841,-0l-0,-35.613l-13.059,0l0,83.1l13.059,-0l-0,-35.613Zm53.42,-35.616l22.563,-0l-0,-11.871l-35.621,0l0,83.1l35.621,-0l-0,-11.871l-22.563,0l0,-24.337l17.93,-0l-0,-11.871l-17.93,-0l0,-23.15Zm33.363,71.229l13.058,-0l0,-83.1l-13.058,0l0,83.1Zm78.113,-35.613l23.737,0l0,-11.87l-23.737,-0l-0,11.87Z" style="fill:#005f54;fill-rule:nonzero;"/><path d="M196.658,405.033c0,9.496 3.442,16.379 14.363,25.996c8.55,7.479 11.162,11.988 11.162,18.042c0,5.937 -2.612,8.075 -6.766,8.075c-4.159,-0 -6.767,-2.138 -6.767,-8.075l0,-5.934l-12.346,0l0,5.105c0,13.295 6.646,20.891 19.467,20.891c12.821,0 19.471,-7.596 19.471,-20.891c-0,-9.496 -3.442,-16.384 -14.367,-26c-8.546,-7.475 -11.158,-11.984 -11.158,-18.038c-0,-5.937 2.375,-8.192 6.529,-8.192c4.154,0 6.529,2.255 6.529,8.192l-0,3.442l12.346,-0l-0,-2.613c-0,-13.296 -6.529,-20.895 -19.229,-20.895c-12.705,-0 -19.234,7.599 -19.234,20.895Z" style="fill:#005f54;fill-rule:nonzero;"/><path d="M239.192,396.958l13.654,0l-0,71.229l13.058,0l0,-71.229l13.65,0l0,-11.871l-40.362,0l-0,11.871Z" style="fill:#005f54;fill-rule:nonzero;"/><path d="M299.437,396.958l21.488,0l0,-11.871l-34.546,0l0,83.1l13.058,0l0,-34.308l16.859,0l-0,-11.871l-16.859,0l0,-25.05Z" style="fill:#005f54;fill-rule:nonzero;"/><path d="M353.087,385.087l-19.112,0l-13.296,83.1l11.988,0l2.258,-15.074l16.025,-0l2.254,15.074l13.179,0l-13.296,-83.1Zm-10.329,14.721l0.238,0l6.175,42.025l-12.584,0l6.171,-42.025Z" style="fill:#005f54;fill-rule:nonzero;"/><path d="M375.921,468.187l34.546,0l-0,-11.87l-21.488,-0l0,-71.23l-13.058,0l-0,83.1Z" style="fill:#005f54;fill-rule:nonzero;"/><path d="M431.283,396.958l22.554,0l0,-11.871l-35.612,0l0,83.1l35.612,0l0,-11.87l-22.554,-0l0,-24.338l17.925,0l0,-11.871l-17.925,0l0,-23.15Zm60.9,71.229l13.417,0l0,-83.1l-11.637,0l-0,49.742l-0.238,0l-13.175,-49.742l-16.383,0l-0,83.1l11.754,0l-0,-60.187l0.237,-0l16.025,60.187Z" style="fill:#005f54;fill-rule:nonzero;"/><path d="M492.183,351.8l13.417,-0l0,-83.1l-11.637,0l-0,49.742l-0.238,-0l-13.175,-49.742l-16.383,0l-0,83.1l11.754,-0l-0,-60.188l0.237,0l16.025,60.188Z" style="fill:#005f54;fill-rule:nonzero;"/><path d="M775.696,272.5l-11.929,-0l-11.267,49.929l-0.333,-0.112l-8.063,-49.817l-15.575,-0l15.463,78.538l14.141,-0l11.375,-48.605l0.334,0l11.487,48.605l14.138,-0l15.354,-78.538l-15.463,-0l-7.954,49.708l-0.333,0.109l-11.375,-49.817Z" style="fill:#231f20;fill-rule:nonzero;"/><path d="M832.983,292.713l-15.241,-0l-0,58.325l15.241,-0l0,-58.325Zm0,-25.846l-15.241,-0l-0,11.6l15.241,-0l0,-11.6Z" style="fill:#231f20;fill-rule:nonzero;"/><path d="M872.604,292.271c-0.554,-0.221 -1.217,-0.329 -1.766,-0.442c-0.555,-0.221 -1.217,-0.221 -1.88,-0.221c-2.321,0 -4.308,0.775 -5.966,2.434c-1.767,1.654 -3.2,3.975 -4.309,6.845l-0.662,-8.174l-14.138,-0l0,58.325l15.134,-0l-0,-40.209c0.662,-1.658 1.546,-2.871 2.65,-3.754c1.104,-0.996 2.541,-1.438 4.2,-1.438l5.191,0.221l1.546,-13.587Z" style="fill:#231f20;fill-rule:nonzero;"/><path d="M921.008,351.038l0,-47.501l9.392,0l0,-10.824l-9.392,-0l0,-6.626c0,-2.65 0.555,-4.75 1.546,-6.187c0.996,-1.433 2.542,-2.208 4.642,-2.208c0.883,-0 1.654,0.112 2.316,0.221c0.775,0.112 1.438,0.22 2.213,0.441l1.212,-11.487c-1.545,-0.33 -2.983,-0.663 -4.087,-0.771c-1.213,-0.225 -2.429,-0.333 -3.642,-0.333c-6.187,-0 -10.937,1.766 -14.362,5.299c-3.313,3.538 -5.079,8.509 -5.079,15.025l-0,6.626l-7.292,-0l0,10.824l7.292,0l-0,47.501l15.241,-0Z" style="fill:#231f20;fill-rule:nonzero;"/><path d="M934.875,322.537c-0,8.838 2.096,16.017 6.296,21.43c4.196,5.525 10.162,8.175 17.783,8.175c7.509,-0 13.367,-2.763 17.563,-8.175c4.196,-5.521 6.296,-12.592 6.296,-21.43l-0,-1.212c-0,-8.729 -2.1,-15.908 -6.296,-21.429c-4.309,-5.525 -10.163,-8.288 -17.675,-8.288c-7.621,0 -13.475,2.763 -17.671,8.288c-4.2,5.521 -6.296,12.7 -6.296,21.429l-0,1.212Zm15.129,-1.212c0,-5.304 0.667,-9.612 1.992,-12.925c1.433,-3.204 3.641,-4.863 6.846,-4.863c3.096,0 5.412,1.659 6.737,4.863c1.438,3.204 2.1,7.513 2.1,12.925l0,1.212c0,5.413 -0.662,9.721 -2.1,12.926c-1.325,3.204 -3.533,4.858 -6.625,4.858c-3.317,-0 -5.525,-1.654 -6.958,-4.858c-1.325,-3.205 -1.992,-7.513 -1.992,-12.926l0,-1.212Zm27.725,-50.263l-13.475,0l0,10.605l13.475,-0l0,-10.605Zm-24.521,0l-13.583,0l-0,10.605l13.583,-0l0,-10.605Z" style="fill:#231f20;fill-rule:nonzero;"/><path d="M1019.84,292.271c-0.555,-0.221 -1.217,-0.329 -1.771,-0.442c-0.55,-0.221 -1.213,-0.221 -1.875,-0.221c-2.321,0 -4.309,0.775 -5.967,2.434c-1.767,1.654 -3.204,3.975 -4.308,6.845l-0.663,-8.174l-14.137,-0l-0,58.325l15.133,-0l0,-40.209c0.662,-1.658 1.546,-2.871 2.65,-3.754c1.104,-0.996 2.542,-1.438 4.196,-1.438l5.192,0.221l1.55,-13.587Z" style="fill:#231f20;fill-rule:nonzero;"/><path d="M1022.38,323.313c0,8.724 1.767,15.683 5.192,20.987c3.425,5.192 8.175,7.842 14.363,7.842c2.65,-0 5.079,-0.663 7.179,-1.988c1.987,-1.217 3.866,-3.204 5.412,-5.746l1.104,6.63l13.034,-0l-0,-84.171l-15.242,-0l0,31.15c-1.437,-2.1 -3.096,-3.646 -5.083,-4.75c-1.879,-1.104 -3.975,-1.659 -6.296,-1.659c-6.296,0 -11.046,2.763 -14.471,8.396c-3.425,5.633 -5.192,13.033 -5.192,22.204l0,1.105Zm15.134,-1.105c-0,-5.633 0.662,-10.054 1.987,-13.479c1.325,-3.421 3.538,-5.192 6.408,-5.192c1.659,0 3.092,0.555 4.309,1.438c1.325,0.883 2.429,2.208 3.204,3.867l0,26.841c-0.775,1.546 -1.879,2.65 -3.096,3.425c-1.325,0.771 -2.758,1.105 -4.417,1.105c-2.983,-0 -5.191,-1.438 -6.408,-4.421c-1.325,-3.092 -1.987,-7.179 -1.987,-12.479l-0,-1.105Z" style="fill:#231f20;fill-rule:nonzero;"/><path d="M1112.52,350.263c3.537,-1.326 6.408,-2.984 8.508,-4.859l-3.979,-9.5c-2.317,1.546 -4.529,2.65 -6.517,3.313c-2.096,0.775 -4.529,1.104 -7.621,1.104c-3.533,-0 -6.183,-1.325 -7.841,-3.867c-1.767,-2.537 -2.763,-5.962 -2.984,-10.271l29.492,0l0,-8.283c0,-8.175 -1.875,-14.471 -5.521,-19.221c-3.646,-4.75 -8.95,-7.071 -15.796,-7.071c-7.4,0 -13.145,2.763 -17.233,8.288c-4.087,5.521 -6.183,12.7 -6.183,21.537l-0,2.209c-0,8.395 2.208,15.245 6.404,20.545c4.2,5.305 10.162,7.955 17.896,7.955c4.087,-0 7.841,-0.663 11.375,-1.879Zm-7.4,-43.742c0.996,1.987 1.545,4.75 1.545,8.283l0,1.329l-14.466,0c0.329,-3.866 1.104,-6.962 2.317,-9.279c1.216,-2.212 3.204,-3.317 5.745,-3.317c2.321,0 3.867,0.996 4.859,2.984Z" style="fill:#231f20;fill-rule:nonzero;"/><path d="M1158.14,292.271c-0.55,-0.221 -1.217,-0.329 -1.767,-0.442c-0.554,-0.221 -1.217,-0.221 -1.879,-0.221c-2.317,0 -4.309,0.775 -5.963,2.434c-1.767,1.654 -3.204,3.975 -4.308,6.845l-0.663,-8.174l-14.141,-0l-0,58.325l15.133,-0l-0,-40.209c0.663,-1.658 1.546,-2.871 2.654,-3.754c1.104,-0.996 2.538,-1.438 4.196,-1.438l5.192,0.221l1.546,-13.587Z" style="fill:#231f20;fill-rule:nonzero;"/><path d="M1163.41,292.713l0,58.325l15.246,-0l0,-42.971c0.992,-1.434 2.1,-2.538 3.425,-3.313c1.325,-0.775 2.871,-1.217 4.529,-1.217c2.209,0 3.863,0.996 4.859,2.763c1.104,1.767 1.658,4.863 1.658,9.279l0,35.459l15.133,-0l0,-35.459c0,-8.283 -1.437,-14.358 -4.2,-18.225c-2.87,-3.867 -6.737,-5.746 -11.708,-5.746c-2.983,0 -5.633,0.775 -7.954,2.434c-2.429,1.654 -4.417,3.862 -6.075,6.737l-0.663,-8.066l-14.25,-0Z" style="fill:#231f20;fill-rule:nonzero;"/><path d="M1234.23,337.783l-14.8,0l0,12.592l-3.312,17.121l10.271,-0l7.841,-16.679l0,-13.034Z" style="fill:#231f20;fill-rule:nonzero;"/><path d="M1303.7,292.713l-9.833,-0l-8.505,32.695l-0.333,0l-5.191,-32.695l-14.688,-0l12.371,58.325l12.7,-0l8.396,-30.821l0.333,-0l8.504,30.821l12.704,-0l12.259,-58.325l-14.692,-0l-5.192,32.474l-0.329,0l-8.504,-32.474Z" style="fill:#231f20;fill-rule:nonzero;"/><path d="M1383.25,351.038c-0.771,-2.434 -1.433,-4.863 -1.766,-7.292c-0.442,-2.542 -0.663,-5.079 -0.663,-7.842l0,-23.971c0,-6.516 -1.879,-11.487 -5.633,-15.02c-3.867,-3.538 -8.838,-5.305 -15.021,-5.305c-6.517,0 -11.821,1.767 -15.796,5.305c-3.979,3.533 -5.854,7.733 -5.633,12.812l0.108,0.329l14.692,0c-0,-2.317 0.441,-4.083 1.437,-5.3c0.992,-1.325 2.429,-1.987 4.309,-1.987c2.095,-0 3.641,0.883 4.749,2.429c1.105,1.546 1.655,3.754 1.655,6.629l-0,4.858l-6.625,0c-7.513,0 -13.146,1.659 -16.9,4.75c-3.759,3.204 -5.634,7.621 -5.634,13.254c0,5.413 1.434,9.721 4.304,12.813c2.875,3.096 6.963,4.642 12.263,4.642c3.092,-0 5.633,-0.884 7.733,-2.763c2.096,-1.879 3.755,-4.308 5.08,-7.179c0.22,1.546 0.441,3.092 0.883,4.637c0.333,1.546 0.775,2.875 1.437,4.201l15.021,-0Zm-30.154,-12.042c-0.883,-1.213 -1.438,-2.871 -1.438,-4.859c0,-2.541 0.555,-4.641 1.771,-6.295c1.213,-1.659 2.98,-2.434 5.634,-2.434l6.625,0l-0,9.171c-0.663,1.767 -1.655,3.204 -3.313,4.417c-1.546,1.325 -3.312,1.879 -5.304,1.879c-1.654,-0 -2.979,-0.554 -3.975,-1.879Z" style="fill:#231f20;fill-rule:nonzero;"/><path d="M1414.88,340.1c-1.104,1.104 -2.762,1.658 -4.862,1.658c-2.538,0 -4.53,-0.775 -5.963,-2.1c-1.437,-1.433 -2.208,-3.645 -2.321,-6.846l-13.808,0l-0.108,0.33c-0.221,4.862 1.654,9.279 5.633,13.254c3.975,3.867 9.387,5.746 16.125,5.746c6.517,-0 11.821,-1.546 15.796,-4.75c3.979,-3.092 5.966,-7.179 5.966,-12.15c0,-4.529 -1.545,-8.284 -4.529,-11.159c-2.983,-2.87 -7.62,-5.3 -13.695,-7.508c-4.088,-1.771 -6.63,-3.317 -7.846,-4.308c-1.213,-1.104 -1.767,-2.542 -1.767,-4.2c-0,-1.654 0.662,-3.092 1.767,-4.196c1.216,-1.217 2.762,-1.767 4.529,-1.767c2.208,0 3.758,0.771 4.862,2.209c1.104,1.545 1.655,3.533 1.655,5.966l14.691,0l0.113,-0.333c0.108,-5.3 -1.767,-9.721 -5.634,-13.146c-3.866,-3.425 -9.17,-5.192 -15.687,-5.192c-6.183,0 -11.267,1.659 -15.021,4.971c-3.867,3.425 -5.746,7.4 -5.746,12.15c0,4.421 1.546,7.954 4.529,10.717c2.984,2.762 7.4,5.3 13.367,7.512c3.754,1.767 6.408,3.2 7.733,4.417c1.325,1.217 1.988,2.762 1.988,4.417c-0,1.879 -0.554,3.316 -1.767,4.308Z" style="fill:#231f20;fill-rule:nonzero;"/><path d="M1483.71,272.5l-19.771,-0l-0,78.538l15.133,-0l-0,-49.046l0.329,-0.109l14.029,49.155l10.275,-0l14.138,-49.488l0.329,-0l-0,49.488l15.133,-0l0,-78.538l-19.879,-0l-14.804,58.213l-0.329,-0l-14.583,-58.213Z" style="fill:#231f20;fill-rule:nonzero;"/><path d="M1577.82,350.263c3.533,-1.326 6.404,-2.984 8.504,-4.859l-3.975,-9.5c-2.321,1.546 -4.529,2.65 -6.517,3.313c-2.1,0.775 -4.529,1.104 -7.625,1.104c-3.533,-0 -6.183,-1.325 -7.842,-3.867c-1.766,-2.537 -2.758,-5.962 -2.983,-10.271l29.496,0l0,-8.283c0,-8.175 -1.879,-14.471 -5.525,-19.221c-3.646,-4.75 -8.946,-7.071 -15.796,-7.071c-7.4,0 -13.141,2.763 -17.229,8.288c-4.087,5.521 -6.187,12.7 -6.187,21.537l-0,2.209c-0,8.395 2.208,15.245 6.408,20.545c4.196,5.305 10.162,7.955 17.892,7.955c4.087,-0 7.845,-0.663 11.379,-1.879Zm-7.4,-43.742c0.991,1.987 1.545,4.75 1.545,8.283l0,1.329l-14.47,0c0.333,-3.866 1.104,-6.962 2.321,-9.279c1.212,-2.208 3.199,-3.317 5.741,-3.317c2.321,0 3.867,0.996 4.863,2.984Z" style="fill:#231f20;fill-rule:nonzero;"/><path d="M1594.33,292.713l0,58.325l15.242,-0l0,-42.971c0.996,-1.434 2.1,-2.538 3.425,-3.313c1.325,-0.775 2.871,-1.217 4.529,-1.217c2.208,0 3.867,0.996 4.858,2.763c1.105,1.767 1.659,4.863 1.659,9.279l-0,35.459l15.133,-0l0,-35.459c0,-8.283 -1.437,-14.358 -4.2,-18.225c-2.871,-3.867 -6.737,-5.746 -11.708,-5.746c-2.979,0 -5.633,0.775 -7.95,2.434c-2.434,1.654 -4.421,3.862 -6.075,6.737l-0.667,-8.066l-14.246,-0Z" style="fill:#231f20;fill-rule:nonzero;"/><path d="M1673.22,340.1c-1.104,1.104 -2.763,1.658 -4.863,1.658c-2.537,0 -4.525,-0.775 -5.962,-2.1c-1.438,-1.433 -2.208,-3.645 -2.321,-6.846l-13.808,0l-0.109,0.33c-0.221,4.862 1.659,9.279 5.634,13.254c3.975,3.867 9.387,5.746 16.125,5.746c6.516,-0 11.82,-1.546 15.796,-4.75c3.979,-3.092 5.966,-7.179 5.966,-12.15c0,-4.529 -1.546,-8.284 -4.529,-11.159c-2.983,-2.87 -7.621,-5.3 -13.696,-7.508c-4.087,-1.771 -6.629,-3.317 -7.846,-4.308c-1.212,-1.104 -1.766,-2.542 -1.766,-4.2c-0,-1.654 0.662,-3.092 1.766,-4.196c1.217,-1.217 2.763,-1.767 4.529,-1.767c2.213,0 3.759,0.771 4.863,2.209c1.104,1.545 1.654,3.533 1.654,5.966l14.692,0l0.112,-0.333c0.109,-5.3 -1.766,-9.721 -5.633,-13.146c-3.867,-3.425 -9.171,-5.192 -15.688,-5.192c-6.183,0 -11.266,1.659 -15.02,4.971c-3.867,3.425 -5.742,7.4 -5.742,12.15c-0,4.421 1.546,7.954 4.525,10.717c2.983,2.762 7.404,5.3 13.367,7.512c3.754,1.767 6.408,3.2 7.733,4.417c1.325,1.217 1.988,2.762 1.988,4.417c-0,1.879 -0.555,3.316 -1.767,4.308Z" style="fill:#231f20;fill-rule:nonzero;"/><path d="M1712.32,335.571c-1.213,-3.2 -1.767,-7.508 -1.767,-12.921l0,-1.546c0,-5.304 0.554,-9.5 1.767,-12.704c1.216,-3.313 3.425,-4.863 6.629,-4.863c2.208,0 3.867,0.996 4.971,2.984c1.104,1.987 1.654,4.529 1.654,7.733l13.808,0l0.113,-0.221c0.108,-6.85 -1.767,-12.37 -5.525,-16.35c-3.646,-4.083 -8.725,-6.075 -15.021,-6.075c-7.621,0 -13.475,2.763 -17.563,8.288c-4.087,5.521 -6.075,12.591 -6.075,21.208l0,1.546c0,8.725 1.988,15.796 6.075,21.317c4.088,5.412 9.942,8.175 17.563,8.175c5.962,-0 10.933,-1.879 14.8,-5.855c3.979,-3.866 5.854,-8.837 5.746,-14.912l-0.221,-0.333l-13.7,-0c-0,2.983 -0.55,5.304 -1.654,6.85c-1.104,1.658 -2.763,2.429 -4.971,2.429c-3.204,-0 -5.413,-1.546 -6.629,-4.75Z" style="fill:#231f20;fill-rule:nonzero;"/><path d="M1761.99,266.867l-15.242,-0l0,84.171l15.242,-0l-0,-43.413c0.883,-1.325 1.987,-2.317 3.312,-2.979c1.329,-0.775 2.875,-1.109 4.529,-1.109c2.321,0 3.979,0.996 4.971,2.876c1.104,1.987 1.659,5.3 1.659,10.162l-0,34.463l15.133,-0l-0,-34.355c-0,-8.504 -1.438,-14.8 -4.529,-18.887c-2.984,-4.196 -7.071,-6.188 -12.371,-6.188c-2.542,0 -4.971,0.663 -7.179,2.1c-2.1,1.438 -3.98,3.425 -5.525,6.075l-0,-32.916Z" style="fill:#231f20;fill-rule:nonzero;"/><path d="M1835.25,350.263c3.537,-1.326 6.408,-2.984 8.508,-4.859l-3.979,-9.5c-2.317,1.546 -4.529,2.65 -6.517,3.313c-2.1,0.775 -4.529,1.104 -7.62,1.104c-3.534,-0 -6.188,-1.325 -7.842,-3.867c-1.767,-2.537 -2.763,-5.962 -2.984,-10.271l29.492,0l0,-8.283c0,-8.175 -1.879,-14.471 -5.521,-19.221c-3.645,-4.75 -8.95,-7.071 -15.796,-7.071c-7.4,0 -13.145,2.763 -17.233,8.288c-4.087,5.521 -6.183,12.7 -6.183,21.537l-0,2.209c-0,8.395 2.208,15.245 6.404,20.545c4.2,5.305 10.162,7.955 17.896,7.955c4.087,-0 7.841,-0.663 11.375,-1.879Zm-7.4,-43.742c0.996,1.987 1.546,4.75 1.546,8.283l-0,1.329l-14.471,0c0.333,-3.866 1.108,-6.962 2.321,-9.279c1.216,-2.208 3.204,-3.317 5.745,-3.317c2.317,0 3.867,0.996 4.859,2.984Z" style="fill:#231f20;fill-rule:nonzero;"/><path d="M1851.76,292.713l-0,58.325l15.245,-0l0,-42.971c0.992,-1.434 2.096,-2.538 3.421,-3.313c1.325,-0.775 2.875,-1.217 4.529,-1.217c2.209,0 3.867,0.996 4.863,2.763c1.104,1.767 1.654,4.863 1.654,9.279l-0,35.459l15.133,-0l0,-35.459c0,-8.283 -1.433,-14.358 -4.196,-18.225c-2.87,-3.867 -6.737,-5.746 -11.708,-5.746c-2.983,0 -5.633,0.775 -7.954,2.434c-2.429,1.654 -4.417,3.862 -6.075,6.737l-0.663,-8.066l-14.249,-0Z" style="fill:#231f20;fill-rule:nonzero;"/><path d="M1942.16,292.713l-16.016,-0l16.679,58.325l14.908,-0l16.571,-58.325l-15.908,-0l-7.179,36.783l-0.771,4.421l-0.333,-0l-0.663,-4.421l-7.288,-36.783Z" style="fill:#231f20;fill-rule:nonzero;"/><path d="M2013.21,350.263c3.534,-1.326 6.405,-2.984 8.505,-4.859l-3.98,-9.5c-2.316,1.546 -4.525,2.65 -6.516,3.313c-2.096,0.775 -4.529,1.104 -7.621,1.104c-3.533,-0 -6.183,-1.325 -7.842,-3.867c-1.766,-2.537 -2.762,-5.962 -2.983,-10.271l29.492,0l-0,-8.283c-0,-8.175 -1.875,-14.471 -5.521,-19.221c-3.646,-4.75 -8.946,-7.071 -15.796,-7.071c-7.4,0 -13.146,2.763 -17.233,8.288c-4.088,5.521 -6.184,12.7 -6.184,21.537l0,2.209c0,8.395 2.209,15.245 6.404,20.545c4.201,5.305 10.163,7.955 17.896,7.955c4.088,-0 7.842,-0.663 11.379,-1.879Zm-7.404,-43.742c0.996,1.987 1.546,4.75 1.546,8.283l0,1.329l-14.467,0c0.33,-3.866 1.105,-6.962 2.317,-9.279c1.217,-2.212 3.204,-3.317 5.746,-3.317c2.321,0 3.867,0.996 4.858,2.984Z" style="fill:#231f20;fill-rule:nonzero;"/><path d="M2058.78,292.271c-0.554,-0.221 -1.216,-0.329 -1.771,-0.442c-0.55,-0.221 -1.212,-0.221 -1.875,-0.221c-2.321,0 -4.308,0.775 -5.966,2.434c-1.767,1.654 -3.204,3.975 -4.309,6.845l-0.662,-8.174l-14.138,-0l0,58.325l15.134,-0l-0,-40.209c0.662,-1.658 1.546,-2.871 2.65,-3.754c1.104,-0.996 2.541,-1.438 4.196,-1.438l5.191,0.221l1.55,-13.587Z" style="fill:#231f20;fill-rule:nonzero;"/><path d="M2110.7,322.208c-0,-9.391 -1.658,-16.791 -4.971,-22.312c-3.312,-5.525 -8.283,-8.288 -14.692,-8.288c-2.429,0 -4.637,0.555 -6.516,1.659c-1.879,0.996 -3.534,2.541 -4.971,4.637l-0,-31.037l-15.133,-0l-0,84.171l13.033,-0l0.996,-6.517c1.433,2.429 3.204,4.416 5.3,5.633c2.1,1.325 4.529,1.988 7.4,1.988c6.408,-0 11.271,-2.542 14.583,-7.842c3.313,-5.192 4.971,-12.15 4.971,-20.987l-0,-1.105Zm-15.246,1.105c-0,5.52 -0.55,9.72 -1.654,12.591c-1.217,2.871 -3.425,4.309 -6.629,4.309c-1.767,-0 -3.313,-0.334 -4.638,-1.105c-1.216,-0.662 -2.208,-1.771 -2.983,-3.316l-0,-27.063c0.775,-1.654 1.767,-2.871 3.092,-3.754c1.216,-0.996 2.762,-1.438 4.529,-1.438c3.204,0 5.304,1.659 6.516,4.971c1.217,3.205 1.767,7.846 1.767,13.7l-0,1.105Z" style="fill:#231f20;fill-rule:nonzero;"/><path d="M2134.68,292.713l-15.241,-0l-0,58.325l15.241,-0l0,-58.325Zm0,-25.846l-15.241,-0l-0,11.6l15.241,-0l0,-11.6Z" style="fill:#231f20;fill-rule:nonzero;"/><path d="M2145.25,292.713l0,58.325l15.242,-0l-0,-42.971c0.996,-1.434 2.1,-2.538 3.425,-3.313c1.325,-0.775 2.875,-1.217 4.529,-1.217c2.208,0 3.867,0.996 4.862,2.763c1.105,1.767 1.655,4.863 1.655,9.279l-0,35.459l15.133,-0l0,-35.459c0,-8.283 -1.433,-14.358 -4.196,-18.225c-2.875,-3.867 -6.737,-5.746 -11.708,-5.746c-2.983,0 -5.633,0.775 -7.954,2.434c-2.429,1.654 -4.417,3.862 -6.075,6.737l-0.663,-8.066l-14.25,-0Z" style="fill:#231f20;fill-rule:nonzero;"/><path d="M2197.85,323.313c0,8.724 1.767,15.683 5.192,20.987c3.425,5.192 8.175,7.842 14.358,7.842c2.65,-0 5.083,-0.663 7.179,-1.988c1.988,-1.217 3.867,-3.204 5.413,-5.746l1.104,6.63l13.038,-0l-0,-84.171l-15.246,-0l-0,31.15c-1.434,-2.1 -3.092,-3.646 -5.079,-4.75c-1.88,-1.104 -3.98,-1.659 -6.296,-1.659c-6.296,0 -11.046,2.763 -14.471,8.396c-3.425,5.633 -5.192,13.033 -5.192,22.204l0,1.105Zm15.134,-1.105c-0,-5.633 0.662,-10.054 1.987,-13.479c1.325,-3.421 3.533,-5.192 6.404,-5.192c1.658,0 3.096,0.555 4.308,1.438c1.33,0.883 2.434,2.208 3.205,3.867l-0,26.841c-0.771,1.546 -1.875,2.65 -3.092,3.425c-1.325,0.771 -2.763,1.105 -4.421,1.105c-2.979,-0 -5.187,-1.438 -6.404,-4.421c-1.325,-3.092 -1.987,-7.179 -1.987,-12.479l-0,-1.105Z" style="fill:#231f20;fill-rule:nonzero;"/><path d="M2288.01,350.263c3.534,-1.326 6.409,-2.984 8.505,-4.859l-3.976,-9.5c-2.32,1.546 -4.529,2.65 -6.516,3.313c-2.1,0.775 -4.529,1.104 -7.621,1.104c-3.538,-0 -6.188,-1.325 -7.846,-3.867c-1.767,-2.537 -2.758,-5.962 -2.979,-10.271l29.492,0l-0,-8.283c-0,-8.175 -1.88,-14.471 -5.525,-19.221c-3.642,-4.75 -8.946,-7.071 -15.796,-7.071c-7.4,0 -13.142,2.763 -17.229,8.288c-4.088,5.521 -6.188,12.7 -6.188,21.537l0,2.209c0,8.395 2.213,15.245 6.408,20.545c4.196,5.305 10.163,7.955 17.896,7.955c4.084,-0 7.842,-0.663 11.375,-1.879Zm-7.4,-43.742c0.992,1.987 1.546,4.75 1.546,8.283l0,1.329l-14.471,0c0.334,-3.866 1.104,-6.962 2.321,-9.279c1.217,-2.208 3.204,-3.317 5.742,-3.317c2.321,0 3.866,0.996 4.862,2.984Z" style="fill:#231f20;fill-rule:nonzero;"/><path d="M2307.4,278.133l-0,14.58l-7.067,-0l0,10.824l7.067,0l-0,29.826c-0,6.516 1.325,11.266 3.979,14.25c2.65,3.091 6.517,4.529 11.487,4.529c1.546,-0 3.092,-0.113 4.417,-0.334c1.325,-0.221 2.65,-0.55 4.088,-1.104l-1.217,-11.267c-0.662,0.221 -1.212,0.442 -1.654,0.555c-0.442,-0 -1.109,0.108 -1.771,0.108c-1.325,-0 -2.317,-0.55 -2.979,-1.546c-0.775,-1.104 -1.104,-2.871 -1.104,-5.3l-0,-29.717l7.95,0l-0,-10.824l-7.95,-0l-0,-14.58l-15.246,0Z" style="fill:#231f20;fill-rule:nonzero;"/><rect x="2340.87" y="337.342" width="14.912" height="13.696" style="fill:#231f20;fill-rule:nonzero;"/><g><path d="M2492.85,637.379c-48.946,0 -88.65,-39.904 -88.65,-89.112l0,-98.279l177.3,-0l0.004,98.279c0,49.208 -39.708,89.112 -88.654,89.112Z" style="fill:#fff;"/><path d="M2582.4,449.096l-0,99.167c-0,49.7 -40.1,90.004 -89.542,90.004c-49.441,-0 -89.542,-40.304 -89.542,-90.004l0,-99.167l179.084,-0Zm-3.338,99.167c0,47.87 -38.62,86.666 -86.204,86.666c-47.583,0 -86.204,-38.796 -86.204,-86.666l0,-95.83l172.408,0l0,95.83Z" style="fill:#231f20;"/><path d="M2496.2,628.496c-0.787,1.404 -1.946,2.579 -3.35,3.371c-1.392,-0.792 -2.55,-1.95 -3.342,-3.35c1.309,-0.2 2.496,-0.746 3.355,-1.788c0.862,1 2.041,1.563 3.337,1.767Zm-18.962,-8.896c-1.571,-0.321 -3.034,-1.062 -4.221,-2.137c0.325,-1.571 1.075,-3.034 2.158,-4.213c0.588,1.171 1.471,2.121 2.721,2.621c-0.717,1.142 -0.871,2.433 -0.658,3.729Zm2.629,-20.754c-0.192,-1.604 0.062,-3.234 0.725,-4.704c1.6,-0.171 3.216,0.083 4.675,0.754c-0.942,0.925 -1.575,2.075 -1.658,3.421c-1.288,-0.304 -2.567,-0.071 -3.742,0.529Zm20.55,-3.942c1.462,-0.675 3.092,-0.941 4.691,-0.762c0.663,1.462 0.913,3.087 0.73,4.679c-1.171,-0.613 -2.455,-0.863 -3.771,-0.521c-0.1,-1.321 -0.725,-2.463 -1.65,-3.396Zm10.096,18.329c1.095,1.184 1.845,2.646 2.17,4.23c-1.183,1.075 -2.65,1.816 -4.22,2.137c0.216,-1.304 0.058,-2.604 -0.667,-3.746c1.221,-0.508 2.113,-1.454 2.717,-2.621Zm-17.667,3.296c-3.046,0 -5.513,-2.462 -5.513,-5.517c0,-3.041 2.467,-5.512 5.513,-5.512c3.05,-0 5.521,2.471 5.521,5.512c-0,3.055 -2.471,5.517 -5.521,5.517Zm-81.75,-159.646l67.633,0c-2.516,2.767 -4.966,5.584 -7.212,8.584c-8.521,11.383 -7.684,27.258 -16.292,38.383c-7.525,9.733 -20.275,12.283 -27.321,21.271c-7.983,10.183 -8.496,24.191 -16.02,34.612c-0.517,-3.746 -0.788,-7.579 -0.788,-11.47l0,-91.38Zm79.533,31.946l0,59.434c0,29.975 -15.954,56.187 -39.766,70.554c-12.125,-7.317 -22.217,-17.705 -29.196,-30.1c4.325,-4.509 8.558,-9.08 11.862,-14.429c6.713,-10.892 7.713,-24.684 15.671,-34.821c7.371,-9.405 20.371,-12.004 27.3,-21.25c6.609,-8.809 8.633,-19.959 14.129,-29.388Z" style="fill:#00a650;fill-rule:nonzero;"/><path d="M2495.08,456.883l79.533,0l0,91.384c0,29.975 -15.954,56.187 -39.766,70.55c-23.809,-14.363 -39.767,-40.575 -39.767,-70.55l-0,-91.384Zm76.246,52.796c-0,5.333 -4.821,7.638 -4.821,11.621c0,4.712 4.658,6.983 4.658,11.529c0,4.7 -3.696,5.496 -6.091,4.683c-0,0 1.5,-0.358 1.5,-2.191c-0,-5.567 -11.93,-5.275 -11.93,-14.021c0,-4.571 3.246,-8.217 3.246,-10.913c0,-1.37 -1.033,-3.304 -2.8,-3.916c2.442,-1.729 6.538,-0.667 7.596,1.979c0.846,-2.204 1.621,-5.488 0.629,-8.675c5.605,2.146 8.004,5.8 8.013,9.879l-0,0.025Zm-45.504,-33.254c1.25,2.088 4.437,-0.004 4.437,-0.004c0,-0 -3.858,-3.654 -4.437,0.004Zm19.77,116.092c0,-2.755 2.705,-5.138 2.976,-5.367c0.133,0.021 0.27,0.033 0.412,0.033c1.483,0 2.679,-1.2 2.679,-2.683c0,-0.404 -0.087,-0.787 -0.25,-1.129c7.35,-13.117 5.404,-15.021 -5.983,-24.325c-3.117,-2.546 -4.079,-9.988 -4.079,-16.838c-4.529,-10.579 -16.763,-9.35 -21.375,-19.733l5.35,0.292c2.741,0.146 4.666,-1.513 5.579,-2.875c0.854,-1.275 0.012,-3.013 -1.363,-2.546c-0.625,1.712 -2.3,3.075 -4.154,2.975l-13.283,-0.717c-2.638,2.625 -2.071,6.425 2.55,8.413l-0,1.983l3.167,-0c1.129,3.583 1.17,6.8 0.12,8.958c-2.525,0 -5.379,-3.016 -5.379,-3.016c0.009,-0.313 0.05,-0.575 0.05,-0.846c0,-1.479 -1.2,-2.679 -2.679,-2.679c-0.208,-0 -0.412,0.025 -0.604,0.07c-1.509,-2.391 -1.271,-7.504 -5.163,-13.195l2.95,-3.584l10.792,-3.629c0.308,-12.65 14.842,-15.575 17.079,-24.812c3.113,-0 5.05,-0.921 6.558,-3.875c0.392,-0.767 0.209,-2.567 -1.741,-2.18c-1.083,3.067 -2.521,3.609 -4.533,3.609c-5.238,-0 -9.463,-0.884 -10.167,1.45c-1.183,3.937 -6.642,1.466 -6.642,1.466l1.334,-0.97c0.108,0.012 0.22,0.021 0.337,0.021c1.008,-0 1.833,-0.534 1.833,-1.192c0,-0.658 -0.825,-1.188 -1.833,-1.188c-1.008,0 -1.829,0.53 -1.829,1.188c-0,0.042 0.004,0.079 0.012,0.121l-1.258,0.908c-1.612,0 -1.892,-1.263 -1.937,-1.862c0.641,-0 1.116,-0.53 1.116,-1.184c0,-0.654 -0.475,-1.187 -1.067,-1.187c0.026,-0.48 0.296,-1.48 1.455,-2.396l9.316,-7.396c1.35,-1.071 4.042,-2.513 5.238,-3.129c-0.146,-2.029 0.621,-4.704 0.621,-6.596c-0,-0 2.741,1.175 3.862,3.838c0.825,1.97 0.3,3.191 -0.062,4.158c0.504,0.796 2.621,0.804 2.871,-1.234c0.095,-0.804 0.083,-1.75 -0.225,-2.845c3.624,0.396 8.729,1.637 16.579,0.846c-1.592,1.841 -3.634,3.175 -5.792,4.133c3.908,0.925 8.721,2.85 11.121,6.854c-1.879,0.954 -3.942,1.583 -5.983,1.979c3.749,3.267 5.216,8.159 8.429,10.134c-4.163,1.154 -7.596,0.829 -10.296,-0.088c1.308,2.667 3.329,5.779 6.1,7.196c-3.775,1.7 -7.45,2.671 -10.288,3.221c0.888,1.487 2.196,3.316 3.788,4.525c-2.934,0.108 -5.288,0.929 -6.659,1.533c-0.245,3.429 -1.187,10.537 7.496,19.704c11.575,8.75 14.463,15.383 5.342,27.146c-0,5.963 0.996,8.358 4.083,14.446c-0.262,0.596 -1.533,3.458 -2.795,6.962c-1.384,3.838 -2.426,8.05 -2.426,11.759c0,-0 -1.962,-0.013 -1.962,2.079l-0,3.166c-3.596,1.121 -7.254,1.167 -9.388,0.13Zm-45.045,-77.213c-1.667,-1.65 -1.684,-5.196 -1.671,-5.829c0.237,-0.125 0.458,-0.283 0.654,-0.483c1.046,-1.046 1.046,-2.742 -0,-3.788c-0.158,-0.158 -0.329,-0.296 -0.512,-0.404c1.508,-4.454 4.449,-6.771 5.641,-13.092l4.613,0l10.954,8.596c-1.95,2.204 -3.571,4.784 -4.321,8.063l-5.833,-10.859c-3.746,0 -6.042,3.1 -4.1,7.721l-1.413,1.417l2.171,2.3c-1.625,3.212 -3.796,5.454 -6.183,6.358Zm17.183,50.304l15.521,0c-0,-6.4 -4.75,-10.595 -4.75,-18.083c-0,-4.896 1.925,-7.967 7.029,-9.442c1.275,1.159 2.429,2.642 3.371,4.65c0.046,6.559 1.137,11.054 2.704,14.309c0,-0 -3.525,2.687 -3.525,12.562c0,0 -14.008,-0.641 -15.688,1.188l-2.208,-0l0,3.162c-3.45,1.134 -6.658,1.175 -8.958,0.113c-0,-2.809 3.021,-5.363 3.021,-5.363c0.312,0.008 0.57,0.05 0.841,0.05c1.479,0 2.684,-1.2 2.684,-2.679c-0,-0.162 -0.017,-0.317 -0.042,-0.467Zm-34.754,59.009c-3.625,-2.634 -4.979,-7.204 -1.492,-8.967c0.234,-0.617 0,-1.333 -0.55,-1.696c-3.858,0.625 -5.45,-3.871 -4.062,-8.133c1.383,-4.258 5.312,-6.963 8.066,-4.192c0.659,0.034 1.267,-0.412 1.438,-1.046c-1.783,-3.479 2,-6.379 6.487,-6.379c4.475,0 8.263,2.9 6.475,6.379c0.171,0.634 0.779,1.08 1.438,1.046c2.758,-2.771 6.683,-0.066 8.066,4.196c1.388,4.258 -0.204,8.754 -4.062,8.133c-0.55,0.359 -0.783,1.075 -0.55,1.692c3.488,1.763 2.133,6.333 -1.492,8.967c-3.625,2.633 -8.391,2.512 -8.991,-1.35c-0.509,-0.413 -1.267,-0.413 -1.78,-0c-0.599,3.862 -5.366,3.983 -8.991,1.35Zm18.508,-13.6c0,4.766 -3.862,8.629 -8.629,8.629c-4.767,-0 -8.629,-3.863 -8.629,-8.629c-0,-4.767 3.862,-8.63 8.629,-8.63c4.767,0 8.629,3.863 8.629,8.63Z" style="fill:#ed1c24;"/></g><path d="M738.192,437.188l12.575,-0l13.329,48.595l0.167,0l12.908,-48.595l12.658,-0l0,62.429l-9.45,-0l0,-47.496l-0.171,-0c-0.587,4.133 -2.446,11.133 -3.795,15.604l-9.025,31.892l-7.509,-0l-9.029,-31.971c-1.183,-3.883 -3.037,-11.392 -3.796,-15.696l-0.166,0l-0,47.667l-8.696,-0l-0,-62.429Z" style="fill:#231f20;fill-rule:nonzero;"/><path d="M800.967,454.904l9.616,0l0,44.713l-9.616,-0l-0,-44.713Zm-0,-16.371l9.704,0l-0,9.03l-9.704,-0l-0,-9.03Z" style="fill:#231f20;fill-rule:nonzero;"/><path d="M820.712,454.904l9.617,0l0,5.821c2.617,-3.204 7.679,-6.75 13.754,-6.75c6.834,0 10.967,4.304 10.967,12.571l0,33.071l-9.617,-0l0,-30.879c0,-4.384 -1.433,-6.492 -5.15,-6.492c-3.708,-0 -7.929,3.204 -9.954,5.229l0,32.142l-9.617,-0l0,-44.713Z" style="fill:#231f20;fill-rule:nonzero;"/><path d="M864.754,454.904l9.621,0l0,44.713l-9.621,-0l0,-44.713Zm0,-16.371l9.704,0l0,9.03l-9.704,-0l0,-9.03Z" style="fill:#231f20;fill-rule:nonzero;"/><path d="M880.533,491.854l5.909,-4.975c3.287,4.046 7.929,6.238 12.4,6.238c4.554,-0 7.337,-1.6 7.337,-5.059c0,-9.7 -22.946,-4.891 -22.946,-21.341c0,-8.1 6.75,-12.742 15.354,-12.742c6.33,0 12.15,2.871 15.78,7.596l-5.738,5.229c-2.45,-2.871 -6.075,-5.229 -10.125,-5.229c-4.05,-0 -6.158,1.683 -6.158,4.637c-0,9.621 22.862,4.642 22.862,21.263c0,8.35 -7.591,13.075 -16.537,13.075c-8.184,-0 -14.258,-3.458 -18.138,-8.692Z" style="fill:#231f20;fill-rule:nonzero;"/><path d="M924.492,488.988l-0,-26.405l-6.413,0l0,-7.679l6.413,0l-0,-15.696l9.616,0l0,15.696l9.704,0l0,7.679l-9.704,0l0,23.792c0,4.638 1.184,6.237 5.571,6.237c1.35,0 3.038,-0.25 3.796,-0.504l0,7.425c-0.929,0.338 -4.133,0.588 -6.579,0.588c-9.533,-0 -12.404,-3.288 -12.404,-11.133Z" style="fill:#231f20;fill-rule:nonzero;"/><path d="M974.692,473.383c-0.421,-7.429 -2.95,-11.396 -8.1,-11.396c-4.217,0 -7.93,3.042 -8.688,11.396l16.788,0Zm-26.321,3.875c-0,-16.616 9.196,-23.283 18.308,-23.283c10.042,0 16.958,7.342 16.958,23.542l0,2.612l-25.82,0c0.425,8.438 3.883,12.571 9.454,12.571c4.721,0 7.421,-2.279 10.208,-6.075l6.071,4.388c-3.371,5.399 -9.446,9.533 -16.704,9.533c-10.292,-0 -18.475,-7.171 -18.475,-23.288Z" style="fill:#231f20;fill-rule:nonzero;"/><path d="M991.146,454.904l9.621,0l-0,6.917l0.166,-0c2.025,-3.629 6.496,-7.846 13.33,-7.846l0.845,0l-0.254,8.858c-0.254,0 -1.433,-0.083 -2.191,-0.083c-5.317,-0 -9.451,3.038 -11.896,7.088l-0,29.779l-9.621,-0l-0,-44.713Z" style="fill:#231f20;fill-rule:nonzero;"/><path d="M1021.69,454.904l9.616,0l0,44.713l-9.616,-0l-0,-44.713Zm-0,-16.371l9.704,0l-0,9.03l-9.704,-0l-0,-9.03Z" style="fill:#231f20;fill-rule:nonzero;"/><path d="M1041.1,487.979l-0,-33.075l9.617,0l-0,31.046c-0,4.387 1.437,6.412 5.316,6.412c3.542,0 6.917,-2.445 9.788,-5.233l-0,-32.225l9.616,0l0,44.713l-9.616,-0l-0,-5.821c-2.954,3.375 -7.675,6.75 -13.75,6.75c-6.838,-0 -10.971,-4.304 -10.971,-12.567Z" style="fill:#231f20;fill-rule:nonzero;"/><path d="M1085.06,454.904l9.617,0l-0,5.821c2.617,-3.204 7.929,-6.75 13.246,-6.75c6.075,0 8.941,1.942 10.042,6.583c2.779,-3.208 7.504,-6.583 13.579,-6.583c6.833,0 10.971,4.304 10.971,12.571l-0,33.071l-9.621,-0l-0,-30.879c-0,-4.384 -1.434,-6.492 -5.146,-6.492c-3.713,-0 -7.254,2.866 -9.196,4.471l-0,32.9l-9.617,-0l0,-30.879c0,-4.384 -1.012,-6.492 -4.896,-6.492c-2.866,-0 -6.408,2.279 -9.362,5.141l-0,32.23l-9.617,-0l0,-44.713Z" style="fill:#231f20;fill-rule:nonzero;"/><path d="M1172.72,462.583l-6.413,0l0,-7.679l6.413,0l-0,-5.483c-0,-7.342 3.121,-12.404 13.246,-12.404c1.604,-0 4.558,0.171 4.896,0.254l-0,7.762c-0.338,-0.087 -2.28,-0.171 -2.871,-0.171c-3.205,0 -5.655,1.013 -5.655,5.234l0,4.808l8.188,0l0,7.679l-8.188,0l0,37.034l-9.616,-0l-0,-37.034Z" style="fill:#231f20;fill-rule:nonzero;"/><path d="M1216.85,440.812l8.604,0l0,9.621l-8.604,0l-0,-9.621Zm-14.767,0l8.692,0l-0,9.621l-8.692,0l0,-9.621Zm-5.65,47.167l0,-33.075l9.617,0l-0,31.046c-0,4.387 1.433,6.412 5.316,6.412c3.546,0 6.917,-2.445 9.788,-5.233l-0,-32.225l9.617,0l-0,44.713l-9.617,-0l-0,-5.821c-2.954,3.375 -7.679,6.75 -13.754,6.75c-6.833,-0 -10.967,-4.304 -10.967,-12.567Z" style="fill:#231f20;fill-rule:nonzero;"/><path d="M1240.39,454.904l9.617,0l0,6.917l0.171,-0c2.025,-3.629 6.496,-7.846 13.329,-7.846l0.846,0l-0.254,8.858c-0.254,0 -1.433,-0.083 -2.192,-0.083c-5.317,-0 -9.45,3.038 -11.9,7.088l0,29.779l-9.617,-0l0,-44.713Z" style="fill:#231f20;fill-rule:nonzero;"/><path d="M1289.33,437.188l9.954,-0l0,25.058l21.938,-0l-0,-25.058l9.95,-0l-0,62.429l-9.95,-0l-0,-28.175l-21.938,-0l0,28.175l-9.954,-0l-0,-62.429Z" style="fill:#231f20;fill-rule:nonzero;"/><path d="M1366.02,473.383c-0.425,-7.429 -2.954,-11.396 -8.104,-11.396c-4.217,0 -7.929,3.042 -8.692,11.396l16.796,0Zm-26.329,3.875c-0,-16.616 9.2,-23.283 18.312,-23.283c10.038,0 16.954,7.342 16.954,23.542l0,2.612l-25.812,0c0.416,8.438 3.883,12.571 9.45,12.571c4.721,0 7.425,-2.279 10.208,-6.075l6.075,4.388c-3.379,5.399 -9.454,9.533 -16.708,9.533c-10.292,-0 -18.479,-7.171 -18.479,-23.288Z" style="fill:#231f20;fill-rule:nonzero;"/><path d="M1382.9,454.904l9.612,0l0,44.713l-9.612,-0l-0,-44.713Zm-0,-16.371l9.7,0l-0,9.03l-9.7,-0l-0,-9.03Z" style="fill:#231f20;fill-rule:nonzero;"/><path d="M1402.64,454.904l9.617,0l0,5.821c2.613,-3.204 7.934,-6.75 13.246,-6.75c6.075,0 8.946,1.942 10.037,6.583c2.788,-3.208 7.513,-6.583 13.588,-6.583c6.833,0 10.967,4.304 10.967,12.571l-0,33.071l-9.621,-0l-0,-30.879c-0,-4.384 -1.429,-6.492 -5.146,-6.492c-3.713,-0 -7.254,2.866 -9.196,4.471l0,32.9l-9.616,-0l-0,-30.879c-0,-4.384 -1.013,-6.492 -4.896,-6.492c-2.867,-0 -6.413,2.279 -9.363,5.141l0,32.23l-9.617,-0l0,-44.713Z" style="fill:#231f20;fill-rule:nonzero;"/><path d="M1491.48,487.892l0,-11.305c-10.546,2.276 -15.183,5.821 -15.183,10.463c-0,3.708 2.025,5.479 5.229,5.479c4.137,0 7.508,-2.021 9.954,-4.637Zm-24.55,0.762c0,-9.367 8.438,-15.608 24.55,-18.65l0,-1.942c0,-4.212 -1.604,-5.816 -5.567,-5.816c-4.979,-0 -9.445,2.358 -12.654,5.141l-4.808,-5.904c4.721,-4.387 11.388,-7.508 18.642,-7.508c9.45,0 13.754,4.813 13.754,14.087l-0,20.592c-0,5.396 0.337,8.684 1.096,10.963l-9.534,-0c-0.504,-1.688 -0.929,-3.034 -0.929,-5.65c-3.033,3.879 -8.012,6.154 -13.75,6.154c-6.329,-0 -10.8,-4.05 -10.8,-11.467Z" style="fill:#231f20;fill-rule:nonzero;"/><path d="M1513.08,488.988l0,-26.405l-6.412,0l-0,-7.679l6.412,0l0,-15.696l9.617,0l-0,15.696l9.7,0l0,7.679l-9.7,0l-0,23.792c-0,4.638 1.179,6.237 5.567,6.237c1.35,0 3.037,-0.25 3.796,-0.504l-0,7.425c-0.926,0.338 -4.134,0.588 -6.58,0.588c-9.533,-0 -12.4,-3.288 -12.4,-11.133Z" style="fill:#231f20;fill-rule:nonzero;"/><path d="M1544.47,499.617l-4.054,-0l-0,-10.796l10.295,-0l0,9.696l-4.637,10.129l-4.558,-0l2.954,-9.029Z" style="fill:#231f20;fill-rule:nonzero;"/><path d="M1576.87,437.188l9.871,-0l-0,29.949c1.012,-1.858 3.796,-6.158 5.904,-9.283l13.921,-20.666l10.633,-0l-17.046,24.383l19.404,38.046l-10.712,-0l-15.017,-29.613l-7.087,9.704l-0,19.909l-9.871,-0l-0,-62.429Z" style="fill:#231f20;fill-rule:nonzero;"/><path d="M1648.58,477.258c0,-9.025 -2.616,-15.183 -9.025,-15.183c-6.158,0 -9.112,5.483 -9.112,15.183c-0,9.117 2.529,15.442 9.112,15.442c6.159,0 9.025,-5.571 9.025,-15.442Zm-27.754,0c0,-16.112 8.6,-23.283 18.729,-23.283c10.038,0 18.646,7.171 18.646,23.283c0,15.946 -8.608,23.288 -18.646,23.288c-10.041,-0 -18.729,-7.342 -18.729,-23.288Z" style="fill:#231f20;fill-rule:nonzero;"/><path d="M1665.8,454.904l9.621,0l-0,5.821c2.612,-3.204 7.929,-6.75 13.241,-6.75c6.075,0 8.946,1.942 10.038,6.583c2.783,-3.208 7.512,-6.583 13.583,-6.583c6.838,0 10.971,4.304 10.971,12.571l0,33.071l-9.621,-0l0,-30.879c0,-4.384 -1.429,-6.492 -5.146,-6.492c-3.712,-0 -7.254,2.866 -9.195,4.471l-0,32.9l-9.617,-0l0,-30.879c0,-4.384 -1.013,-6.492 -4.892,-6.492c-2.871,-0 -6.412,2.279 -9.362,5.141l-0,32.23l-9.621,-0l-0,-44.713Z" style="fill:#231f20;fill-rule:nonzero;"/><path d="M1732.54,454.904l9.616,0l0,5.821c2.613,-3.204 7.929,-6.75 13.246,-6.75c6.075,0 8.942,1.942 10.038,6.583c2.783,-3.208 7.512,-6.583 13.583,-6.583c6.833,0 10.971,4.304 10.971,12.571l-0,33.071l-9.621,-0l0,-30.879c0,-4.384 -1.433,-6.492 -5.146,-6.492c-3.712,-0 -7.258,2.866 -9.196,4.471l0,32.9l-9.616,-0l-0,-30.879c-0,-4.384 -1.013,-6.492 -4.896,-6.492c-2.867,-0 -6.413,2.279 -9.363,5.141l0,32.23l-9.616,-0l-0,-44.713Z" style="fill:#231f20;fill-rule:nonzero;"/><path d="M1798.94,487.979l-0,-33.075l9.62,0l0,31.046c0,4.387 1.43,6.412 5.313,6.412c3.546,0 6.917,-2.445 9.787,-5.233l0,-32.225l9.617,0l0,44.713l-9.617,-0l0,-5.821c-2.954,3.375 -7.679,6.75 -13.754,6.75c-6.833,-0 -10.966,-4.304 -10.966,-12.567Z" style="fill:#231f20;fill-rule:nonzero;"/><path d="M1842.9,454.904l9.617,0l-0,5.821c2.612,-3.204 7.675,-6.75 13.75,-6.75c6.837,0 10.97,4.304 10.97,12.571l0,33.071l-9.62,-0l-0,-30.879c-0,-4.384 -1.429,-6.492 -5.146,-6.492c-3.709,-0 -7.929,3.204 -9.954,5.229l-0,32.142l-9.617,-0l-0,-44.713Z" style="fill:#231f20;fill-rule:nonzero;"/><path d="M1908.62,487.892l0,-11.305c-10.546,2.276 -15.183,5.821 -15.183,10.463c-0,3.708 2.025,5.479 5.233,5.479c4.133,0 7.504,-2.021 9.95,-4.637Zm-24.546,0.762c0,-9.367 8.434,-15.608 24.546,-18.65l0,-1.942c0,-4.212 -1.6,-5.816 -5.567,-5.816c-4.979,-0 -9.445,2.358 -12.654,5.141l-4.808,-5.904c4.725,-4.387 11.387,-7.508 18.646,-7.508c9.446,0 13.75,4.813 13.75,14.087l-0,20.592c-0,5.396 0.337,8.684 1.095,10.963l-9.533,-0c-0.504,-1.688 -0.929,-3.034 -0.929,-5.65c-3.033,3.879 -8.012,6.154 -13.75,6.154c-6.329,-0 -10.796,-4.05 -10.796,-11.467Z" style="fill:#231f20;fill-rule:nonzero;"/><rect x="1927.78" y="437.188" width="9.617" height="62.429" style="fill:#231f20;fill-rule:nonzero;"/><path d="M1971.74,473.383c-0.426,-7.429 -2.955,-11.396 -8.105,-11.396c-4.216,0 -7.929,3.042 -8.691,11.396l16.796,0Zm-26.326,3.875c0,-16.616 9.196,-23.283 18.309,-23.283c10.037,0 16.954,7.342 16.954,23.542l-0,2.612l-25.813,0c0.421,8.438 3.884,12.571 9.45,12.571c4.721,0 7.426,-2.279 10.209,-6.075l6.075,4.388c-3.379,5.399 -9.454,9.533 -16.708,9.533c-10.292,-0 -18.476,-7.171 -18.476,-23.288Z" style="fill:#231f20;fill-rule:nonzero;"/><path d="M1983.46,491.854l5.908,-4.975c3.287,4.046 7.933,6.238 12.404,6.238c4.554,-0 7.342,-1.6 7.342,-5.059c-0,-9.7 -22.95,-4.891 -22.95,-21.341c-0,-8.1 6.75,-12.742 15.35,-12.742c6.333,0 12.15,2.871 15.779,7.596l-5.738,5.229c-2.441,-2.871 -6.075,-5.229 -10.12,-5.229c-4.051,-0 -6.163,1.683 -6.163,4.637c-0,9.621 22.862,4.642 22.862,21.263c0,8.35 -7.591,13.075 -16.533,13.075c-8.183,-0 -14.258,-3.458 -18.141,-8.692Z" style="fill:#231f20;fill-rule:nonzero;"/><path d="M2028.78,499.617l-4.05,-0l-0,-10.796l10.292,-0l-0,9.696l-4.638,10.129l-4.558,-0l2.954,-9.029Z" style="fill:#231f20;fill-rule:nonzero;"/><path d="M2081.6,491.183c7.421,0 10.629,-3.291 10.629,-9.958c0,-7.337 -4.221,-9.617 -11.558,-9.617l-9.617,0l0,19.575l10.546,0Zm-1.267,-27.591c6.834,-0 10.463,-2.109 10.463,-8.688c-0,-6.583 -3.038,-8.942 -10.296,-8.942l-9.446,0l0,17.63l9.279,-0Zm-19.066,-26.404l19.741,-0c10.884,-0 19.238,4.05 19.238,15.604c-0,9.029 -4.979,12.912 -9.45,14.345l-0,0.171c5.816,1.346 10.966,5.313 10.966,15.271c0,11.804 -8.858,17.038 -19.658,17.038l-20.837,-0l-0,-62.429Z" style="fill:#231f20;fill-rule:nonzero;"/><path d="M2131.96,487.892l0,-11.305c-10.545,2.276 -15.187,5.821 -15.187,10.463c0,3.708 2.029,5.479 5.233,5.479c4.134,0 7.509,-2.021 9.954,-4.637Zm-24.55,0.762c0,-9.367 8.438,-15.608 24.55,-18.65l0,-1.942c0,-4.212 -1.604,-5.816 -5.566,-5.816c-4.979,-0 -9.45,2.358 -12.654,5.141l-4.809,-5.904c4.721,-4.387 11.388,-7.508 18.642,-7.508c9.45,0 13.754,4.813 13.754,14.087l0,20.592c0,5.396 0.338,8.684 1.096,10.963l-9.533,-0c-0.509,-1.688 -0.93,-3.034 -0.93,-5.65c-3.037,3.879 -8.016,6.154 -13.749,6.154c-6.33,-0 -10.801,-4.05 -10.801,-11.467Z" style="fill:#231f20;fill-rule:nonzero;"/><path d="M2150.36,487.979l0,-33.075l9.613,0l-0,31.046c-0,4.387 1.433,6.412 5.317,6.412c3.549,0 6.92,-2.445 9.787,-5.233l0,-32.225l9.621,0l-0,44.713l-9.621,-0l0,-5.821c-2.95,3.375 -7.675,6.75 -13.75,6.75c-6.833,-0 -10.967,-4.304 -10.967,-12.567Z" style="fill:#231f20;fill-rule:nonzero;"/><path d="M2211.78,487.979l0,-33.075l9.621,0l0,31.046c0,4.387 1.429,6.412 5.313,6.412c3.546,0 6.916,-2.445 9.787,-5.233l0,-32.225l9.617,0l-0,44.713l-9.617,-0l0,-5.821c-2.954,3.375 -7.679,6.75 -13.754,6.75c-6.833,-0 -10.967,-4.304 -10.967,-12.567Z" style="fill:#231f20;fill-rule:nonzero;"/><path d="M2255.74,454.904l9.616,0l0,5.821c2.613,-3.204 7.675,-6.75 13.75,-6.75c6.838,0 10.971,4.304 10.971,12.571l0,33.071l-9.617,-0l0,-30.879c0,-4.384 -1.433,-6.492 -5.149,-6.492c-3.709,-0 -7.93,3.204 -9.955,5.229l0,32.142l-9.616,-0l-0,-44.713Z" style="fill:#231f20;fill-rule:nonzero;"/><path d="M2324.17,487.387l-0,-20.416c-2.45,-3.042 -5.488,-4.813 -8.779,-4.813c-5.225,0 -8.35,4.559 -8.35,15.359c-0,10.375 3.125,14.929 8.437,14.929c3.038,-0 6.917,-2.95 8.692,-5.059Zm-26.833,-10.129c-0,-16.112 6.666,-23.283 15.441,-23.283c5.146,0 8.521,2.025 11.392,5.654l-0,-22.441l9.612,-0l0,51.466c0,5.396 0.259,8.684 1.1,10.963l-9.871,-0c-0.504,-1.35 -0.841,-4.388 -0.841,-5.821c-2.617,3.375 -6.329,6.496 -11.984,6.496c-8.687,-0 -14.849,-7.005 -14.849,-23.034Z" style="fill:#231f20;fill-rule:nonzero;"/><path d="M754.308,585.758c11.646,0 16.45,-6.162 16.45,-22.525c0,-15.862 -4.804,-21.933 -16.533,-21.933l-6.075,0l-0,44.458l6.158,0Zm-16.116,-53.575l15.02,0c17.042,0 27.588,8.1 27.588,31.05c-0,23.2 -10.8,31.384 -27.588,31.384l-15.02,-0l-0,-62.434Z" style="fill:#231f20;fill-rule:nonzero;"/><path d="M789.325,549.9l9.621,-0l-0,44.717l-9.621,-0l0,-44.717Zm0,-16.367l9.704,0l0,9.034l-9.704,-0l0,-9.034Z" style="fill:#231f20;fill-rule:nonzero;"/><path d="M831.679,565.337c0,-5.904 -2.529,-9.195 -7.508,-9.195c-4.896,-0 -7.592,3.462 -7.592,9.195c0,5.826 2.784,9.2 7.675,9.2c4.813,0 7.425,-3.374 7.425,-9.2Zm-17.971,34.255c0,4.133 2.871,5.658 10.884,5.658c6.412,0 10.971,-1.775 10.971,-5.487c-0,-3.205 -1.688,-4.809 -9.705,-5.571l-7.004,-0.675c-0.337,-0.079 -0.758,-0.079 -1.179,-0.167c-2.7,1.604 -3.967,3.883 -3.967,6.242Zm31.809,-50.534l-0,8.35c-1.604,0 -3.88,0.171 -6.413,0.929c0.929,1.942 1.434,4.221 1.434,6.834c-0,9.875 -6.413,16.029 -16.367,16.029c-2.196,-0 -4.133,-0.25 -5.904,-0.842c-1.184,0.759 -1.775,1.604 -1.775,2.784c-0,1.604 0.845,2.191 4.558,2.616l6.325,0.675c12.321,1.096 16.875,4.554 16.875,11.892c-0,8.354 -8.858,13.167 -21.008,13.167c-13.5,-0 -18.305,-3.884 -18.305,-10.296c0,-4.388 2.784,-7.508 7.001,-9.533c-2.28,-1.346 -3.626,-3.121 -3.626,-5.655c0,-2.954 2.276,-5.904 5.313,-7.841c-3.967,-2.871 -6.158,-7.513 -6.158,-12.996c-0,-9.704 6.579,-16.196 16.621,-16.196c5.145,-0 9.279,1.604 12.062,4.471c2.45,-2.279 6.412,-3.967 9.367,-4.388Z" style="fill:#231f20;fill-rule:nonzero;"/><path d="M852.433,549.9l9.621,-0l0,44.717l-9.621,-0l0,-44.717Zm0,-16.367l9.704,0l0,9.034l-9.704,-0l0,-9.034Z" style="fill:#231f20;fill-rule:nonzero;"/><path d="M875.05,583.983l-0,-26.404l-6.412,0l-0,-7.679l6.412,-0l-0,-15.692l9.617,0l-0,15.692l9.7,-0l-0,7.679l-9.7,0l-0,23.792c-0,4.637 1.183,6.242 5.566,6.242c1.35,-0 3.038,-0.25 3.796,-0.505l0,7.421c-0.925,0.338 -4.133,0.592 -6.579,0.592c-9.533,-0 -12.4,-3.288 -12.4,-11.138Z" style="fill:#231f20;fill-rule:nonzero;"/><path d="M923.479,582.887l0,-11.304c-10.546,2.275 -15.187,5.821 -15.187,10.463c-0,3.712 2.025,5.483 5.229,5.483c4.133,0 7.508,-2.025 9.958,-4.642Zm-24.554,0.763c0,-9.367 8.437,-15.608 24.554,-18.65l0,-1.937c0,-4.217 -1.604,-5.821 -5.571,-5.821c-4.975,-0 -9.45,2.362 -12.654,5.141l-4.808,-5.904c4.725,-4.383 11.387,-7.504 18.646,-7.504c9.45,-0 13.75,4.808 13.75,14.088l-0,20.587c-0,5.4 0.337,8.688 1.096,10.967l-9.534,-0c-0.504,-1.688 -0.925,-3.038 -0.925,-5.655c-3.037,3.884 -8.017,6.159 -13.754,6.159c-6.329,-0 -10.8,-4.05 -10.8,-11.471Z" style="fill:#231f20;fill-rule:nonzero;"/><rect x="942.629" y="532.183" width="9.621" height="62.433" style="fill:#231f20;fill-rule:nonzero;"/><path d="M962.796,549.9l9.616,-0l0,44.717l-9.616,-0l-0,-44.717Zm-0,-16.367l9.704,0l-0,9.034l-9.704,-0l-0,-9.034Z" style="fill:#231f20;fill-rule:nonzero;"/><path d="M978.575,586.854l5.908,-4.979c3.288,4.05 7.93,6.242 12.4,6.242c4.559,-0 7.342,-1.6 7.342,-5.063c0,-9.7 -22.95,-4.887 -22.95,-21.342c-0,-8.1 6.75,-12.737 15.354,-12.737c6.329,-0 12.15,2.867 15.779,7.592l-5.737,5.229c-2.446,-2.871 -6.075,-5.229 -10.125,-5.229c-4.05,-0 -6.159,1.683 -6.159,4.637c0,9.621 22.863,4.646 22.863,21.263c-0,8.354 -7.592,13.075 -16.538,13.075c-8.179,-0 -14.254,-3.459 -18.137,-8.688Z" style="fill:#231f20;fill-rule:nonzero;"/><path d="M1020.93,549.9l9.621,-0l0,44.717l-9.621,-0l0,-44.717Zm0,-16.367l9.704,0l0,9.034l-9.704,-0l0,-9.034Z" style="fill:#231f20;fill-rule:nonzero;"/><path d="M1064.89,568.379c-0.42,-7.425 -2.949,-11.391 -8.1,-11.391c-4.216,-0 -7.929,3.037 -8.687,11.391l16.787,0Zm-26.32,3.879c-0,-16.621 9.195,-23.283 18.308,-23.283c10.033,-0 16.958,7.337 16.958,23.537l0,2.613l-25.816,-0c0.42,8.438 3.879,12.575 9.446,12.575c4.725,-0 7.424,-2.279 10.212,-6.075l6.071,4.383c-3.371,5.4 -9.446,9.534 -16.704,9.534c-10.292,-0 -18.475,-7.167 -18.475,-23.284Z" style="fill:#231f20;fill-rule:nonzero;"/><path d="M1081.34,549.9l9.62,-0l0,6.921l0.167,-0c2.025,-3.634 6.496,-7.846 13.329,-7.846l0.846,-0l-0.254,8.858c-0.254,0 -1.433,-0.087 -2.192,-0.087c-5.316,-0 -9.45,3.041 -11.896,7.087l0,29.784l-9.62,-0l-0,-44.717Z" style="fill:#231f20;fill-rule:nonzero;"/><path d="M1111.12,582.975l0,-33.075l9.617,-0l-0,31.05c-0,4.383 1.437,6.413 5.316,6.413c3.546,-0 6.921,-2.446 9.788,-5.234l-0,-32.229l9.621,-0l-0,44.717l-9.621,-0l-0,-5.825c-2.95,3.379 -7.675,6.75 -13.75,6.75c-6.834,-0 -10.971,-4.3 -10.971,-12.567Z" style="fill:#231f20;fill-rule:nonzero;"/><path d="M1155.09,549.9l9.616,-0l0,5.821c2.617,-3.204 7.679,-6.746 13.754,-6.746c6.834,-0 10.963,4.3 10.963,12.567l-0,33.075l-9.617,-0l0,-30.88c0,-4.387 -1.433,-6.495 -5.146,-6.495c-3.712,-0 -7.929,3.208 -9.954,5.229l0,32.146l-9.616,-0l-0,-44.717Z" style="fill:#231f20;fill-rule:nonzero;"/><path d="M1221.32,565.337c-0,-5.904 -2.529,-9.195 -7.509,-9.195c-4.891,-0 -7.591,3.462 -7.591,9.195c-0,5.826 2.783,9.2 7.679,9.2c4.808,0 7.421,-3.374 7.421,-9.2Zm-17.971,34.255c-0,4.133 2.871,5.658 10.883,5.658c6.417,0 10.971,-1.775 10.971,-5.487c0,-3.205 -1.687,-4.809 -9.704,-5.571l-7,-0.675c-0.342,-0.079 -0.759,-0.079 -1.183,-0.167c-2.701,1.604 -3.967,3.883 -3.967,6.242Zm31.808,-50.534l0,8.35c-1.604,0 -3.879,0.171 -6.412,0.929c0.929,1.942 1.437,4.221 1.437,6.834c0,9.875 -6.412,16.029 -16.371,16.029c-2.191,-0 -4.133,-0.25 -5.904,-0.842c-1.183,0.759 -1.771,1.604 -1.771,2.784c0,1.604 0.842,2.191 4.555,2.616l6.325,0.675c12.32,1.096 16.874,4.554 16.874,11.892c0,8.354 -8.858,13.167 -21.008,13.167c-13.496,-0 -18.304,-3.884 -18.304,-10.296c-0,-4.388 2.783,-7.508 7,-9.533c-2.275,-1.346 -3.629,-3.121 -3.629,-5.655c-0,-2.954 2.279,-5.904 5.316,-7.841c-3.962,-2.871 -6.158,-7.513 -6.158,-12.996c0,-9.704 6.579,-16.196 16.621,-16.196c5.146,-0 9.279,1.604 12.062,4.471c2.451,-2.279 6.413,-3.967 9.367,-4.388Z" style="fill:#231f20;fill-rule:nonzero;"/><path d="M1284.26,582.383l0,-20.416c-2.449,-3.042 -5.487,-4.809 -8.774,-4.809c-5.234,0 -8.355,4.554 -8.355,15.354c0,10.375 3.121,14.934 8.438,14.934c3.037,-0 6.916,-2.954 8.691,-5.063Zm-26.833,-10.125c0,-16.116 6.667,-23.283 15.442,-23.283c5.146,-0 8.521,2.021 11.391,5.65l0,-22.442l9.613,0l-0,51.467c-0,5.4 0.254,8.688 1.1,10.967l-9.871,-0c-0.508,-1.35 -0.842,-4.388 -0.842,-5.825c-2.616,3.379 -6.329,6.5 -11.983,6.5c-8.687,-0 -14.85,-7.004 -14.85,-23.034Z" style="fill:#231f20;fill-rule:nonzero;"/><path d="M1327.63,568.379c-0.425,-7.425 -2.954,-11.391 -8.104,-11.391c-4.217,-0 -7.929,3.037 -8.687,11.391l16.791,0Zm-26.321,3.879c0,-16.621 9.192,-23.283 18.305,-23.283c10.037,-0 16.954,7.337 16.954,23.537l-0,2.613l-25.813,-0c0.421,8.438 3.884,12.575 9.45,12.575c4.721,-0 7.425,-2.279 10.209,-6.075l6.074,4.383c-3.379,5.4 -9.454,9.534 -16.708,9.534c-10.291,-0 -18.471,-7.167 -18.471,-23.284Z" style="fill:#231f20;fill-rule:nonzero;"/><path d="M1339.27,586.854l5.908,-4.979c3.288,4.05 7.929,6.242 12.4,6.242c4.554,-0 7.342,-1.6 7.342,-5.063c-0,-9.7 -22.95,-4.887 -22.95,-21.342c-0,-8.1 6.75,-12.737 15.358,-12.737c6.325,-0 12.146,2.867 15.775,7.592l-5.737,5.229c-2.446,-2.871 -6.075,-5.229 -10.125,-5.229c-4.046,-0 -6.159,1.683 -6.159,4.637c0,9.621 22.863,4.646 22.863,21.263c-0,8.354 -7.592,13.075 -16.538,13.075c-8.183,-0 -14.254,-3.459 -18.137,-8.688Z" style="fill:#231f20;fill-rule:nonzero;"/><path d="M1400.03,532.183l9.954,0l0,53.488l24.046,-0l-0,8.946l-34,-0l0,-62.434Z" style="fill:#231f20;fill-rule:nonzero;"/><path d="M1463.47,582.887l-0,-11.304c-10.546,2.275 -15.184,5.821 -15.184,10.463c0,3.712 2.025,5.483 5.234,5.483c4.133,0 7.504,-2.025 9.95,-4.642Zm-24.546,0.763c-0,-9.367 8.433,-15.608 24.546,-18.65l-0,-1.937c-0,-4.217 -1.6,-5.821 -5.567,-5.821c-4.979,-0 -9.446,2.362 -12.654,5.141l-4.809,-5.904c4.725,-4.383 11.388,-7.504 18.646,-7.504c9.446,-0 13.75,4.808 13.75,14.088l0,20.587c0,5.4 0.338,8.688 1.096,10.967l-9.533,-0c-0.504,-1.688 -0.929,-3.038 -0.929,-5.655c-3.034,3.884 -8.009,6.159 -13.746,6.159c-6.334,-0 -10.8,-4.05 -10.8,-11.471Z" style="fill:#231f20;fill-rule:nonzero;"/><path d="M1482.2,549.9l9.621,-0l-0,5.821c2.612,-3.204 7.675,-6.746 13.75,-6.746c6.837,-0 10.971,4.3 10.971,12.567l-0,33.075l-9.621,-0l-0,-30.88c-0,-4.387 -1.434,-6.495 -5.146,-6.495c-3.712,-0 -7.933,3.208 -9.954,5.229l-0,32.146l-9.621,-0l-0,-44.717Z" style="fill:#231f20;fill-rule:nonzero;"/><path d="M1550.62,582.383l-0,-20.416c-2.446,-3.042 -5.483,-4.809 -8.775,-4.809c-5.229,0 -8.35,4.554 -8.35,15.354c0,10.375 3.121,14.934 8.433,14.934c3.042,-0 6.921,-2.954 8.692,-5.063Zm-26.829,-10.125c-0,-16.116 6.667,-23.283 15.441,-23.283c5.142,-0 8.521,2.021 11.388,5.65l-0,-22.442l9.617,0l-0,51.467c-0,5.4 0.258,8.688 1.1,10.967l-9.871,-0c-0.509,-1.35 -0.846,-4.388 -0.846,-5.825c-2.617,3.379 -6.325,6.5 -11.983,6.5c-8.688,-0 -14.846,-7.004 -14.846,-23.034Z" style="fill:#231f20;fill-rule:nonzero;"/><path d="M1594,568.379c-0.425,-7.425 -2.954,-11.391 -8.104,-11.391c-4.217,-0 -7.929,3.037 -8.692,11.391l16.796,0Zm-26.329,3.879c-0,-16.621 9.2,-23.283 18.312,-23.283c10.038,-0 16.954,7.337 16.954,23.537l0,2.613l-25.812,-0c0.417,8.438 3.879,12.575 9.446,12.575c4.725,-0 7.429,-2.279 10.212,-6.075l6.075,4.383c-3.379,5.4 -9.454,9.534 -16.708,9.534c-10.292,-0 -18.479,-7.167 -18.479,-23.284Z" style="fill:#231f20;fill-rule:nonzero;"/><path d="M1605.64,586.854l5.909,-4.979c3.292,4.05 7.933,6.242 12.404,6.242c4.554,-0 7.342,-1.6 7.342,-5.063c-0,-9.7 -22.95,-4.887 -22.95,-21.342c-0,-8.1 6.75,-12.737 15.35,-12.737c6.333,-0 12.154,2.867 15.783,7.592l-5.738,5.229c-2.445,-2.871 -6.074,-5.229 -10.125,-5.229c-4.049,-0 -6.162,1.683 -6.162,4.637c-0,9.621 22.867,4.646 22.867,21.263c-0,8.354 -7.596,13.075 -16.538,13.075c-8.183,-0 -14.258,-3.459 -18.142,-8.688Z" style="fill:#231f20;fill-rule:nonzero;"/><path d="M1666.39,532.183l10.712,0l16.959,33.154c2.108,4.05 3.204,6.33 5.316,10.888l0.167,-0l-0,-44.042l9.029,0l0,62.434l-9.196,-0l-18.567,-35.267c-2.02,-3.963 -3.12,-5.992 -5.225,-10.546l-0.17,0l-0,45.813l-9.025,-0l-0,-62.434Z" style="fill:#231f20;fill-rule:nonzero;"/><path d="M1744.94,572.258c-0,-9.025 -2.617,-15.187 -9.025,-15.187c-6.159,-0 -9.113,5.487 -9.113,15.187c0,9.113 2.529,15.442 9.113,15.442c6.158,-0 9.025,-5.571 9.025,-15.442Zm-27.759,0c0,-16.116 8.604,-23.283 18.734,-23.283c10.037,-0 18.646,7.167 18.646,23.283c-0,15.946 -8.609,23.284 -18.646,23.284c-10.042,-0 -18.734,-7.338 -18.734,-23.284Z" style="fill:#231f20;fill-rule:nonzero;"/><path d="M1762.15,549.9l9.621,-0l0,6.921l0.167,-0c2.025,-3.634 6.496,-7.846 13.329,-7.846l0.841,-0l-0.254,8.858c-0.25,0 -1.429,-0.087 -2.191,-0.087c-5.313,-0 -9.446,3.041 -11.892,7.087l0,29.784l-9.621,-0l0,-44.717Z" style="fill:#231f20;fill-rule:nonzero;"/><path d="M1815.05,582.383l0,-20.416c-2.45,-3.042 -5.483,-4.809 -8.775,-4.809c-5.229,0 -8.35,4.554 -8.35,15.354c0,10.375 3.121,14.934 8.434,14.934c3.041,-0 6.92,-2.954 8.691,-5.063Zm-26.829,-10.125c0,-16.116 6.663,-23.283 15.442,-23.283c5.141,-0 8.52,2.021 11.387,5.65l0,-22.442l9.617,0l-0,51.467c-0,5.4 0.254,8.688 1.1,10.967l-9.875,-0c-0.504,-1.35 -0.842,-4.388 -0.842,-5.825c-2.617,3.379 -6.325,6.5 -11.983,6.5c-8.688,-0 -14.846,-7.004 -14.846,-23.034Z" style="fill:#231f20;fill-rule:nonzero;"/><path d="M1834.21,549.9l9.621,-0l0,6.921l0.167,-0c2.025,-3.634 6.496,-7.846 13.329,-7.846l0.842,-0l-0.254,8.858c-0.25,0 -1.429,-0.087 -2.192,-0.087c-5.313,-0 -9.45,3.041 -11.892,7.087l0,29.784l-9.621,-0l0,-44.717Z" style="fill:#231f20;fill-rule:nonzero;"/><path d="M1864.33,532.183l9.621,0l-0,23.538c2.613,-3.204 7.675,-6.746 13.75,-6.746c6.833,-0 10.971,4.3 10.971,12.567l-0,33.075l-9.621,-0l0,-30.88c0,-4.387 -1.433,-6.495 -5.146,-6.495c-3.712,-0 -7.933,3.208 -9.954,5.229l-0,32.146l-9.621,-0l0,-62.434Z" style="fill:#231f20;fill-rule:nonzero;"/><path d="M1932.17,568.379c-0.425,-7.425 -2.954,-11.391 -8.104,-11.391c-4.217,-0 -7.93,3.037 -8.692,11.391l16.796,0Zm-26.325,3.879c-0,-16.621 9.196,-23.283 18.308,-23.283c10.038,-0 16.954,7.337 16.954,23.537l0,2.613l-25.812,-0c0.416,8.438 3.883,12.575 9.446,12.575c4.725,-0 7.429,-2.279 10.212,-6.075l6.075,4.383c-3.379,5.4 -9.454,9.534 -16.708,9.534c-10.292,-0 -18.475,-7.167 -18.475,-23.284Z" style="fill:#231f20;fill-rule:nonzero;"/><path d="M1949.05,549.9l9.617,-0l-0,44.717l-9.617,-0l-0,-44.717Zm-0,-16.367l9.704,0l0,9.034l-9.704,-0l-0,-9.034Z" style="fill:#231f20;fill-rule:nonzero;"/><path d="M1968.79,549.9l9.616,-0l0,5.821c2.613,-3.204 7.675,-6.746 13.75,-6.746c6.838,-0 10.971,4.3 10.971,12.567l0,33.075l-9.621,-0l0,-30.88c0,-4.387 -1.429,-6.495 -5.146,-6.495c-3.712,-0 -7.929,3.208 -9.954,5.229l0,32.146l-9.616,-0l-0,-44.717Z" style="fill:#231f20;fill-rule:nonzero;"/><rect x="2011.31" y="564.583" width="18.9" height="7.421" style="fill:#231f20;fill-rule:nonzero;"/><path d="M2030.72,532.183l9.533,0l5.825,28.604c1.262,6.155 2.021,9.784 3.287,17.546l0.171,0c1.179,-7.679 1.938,-11.304 3.205,-17.546l5.487,-28.604l8.858,0l5.738,29.275c1.179,5.909 2.104,10.125 3.033,16.875l0.171,0c1.008,-6.496 1.937,-10.883 3.121,-16.791l5.904,-29.359l8.775,0l-13.921,62.684l-8.521,-0l-8.946,-45.725l-0.166,-0l-9.029,45.725l-8.604,-0l-13.921,-62.684Z" style="fill:#231f20;fill-rule:nonzero;"/><path d="M2118.97,568.379c-0.425,-7.425 -2.954,-11.391 -8.104,-11.391c-4.217,-0 -7.929,3.037 -8.692,11.391l16.796,0Zm-26.329,3.879c-0,-16.621 9.2,-23.283 18.312,-23.283c10.038,-0 16.955,7.337 16.955,23.537l-0,2.613l-25.813,-0c0.417,8.438 3.883,12.575 9.446,12.575c4.725,-0 7.429,-2.279 10.212,-6.075l6.075,4.383c-3.379,5.4 -9.454,9.534 -16.708,9.534c-10.292,-0 -18.479,-7.167 -18.479,-23.284Z" style="fill:#231f20;fill-rule:nonzero;"/><path d="M2130.62,586.854l5.908,-4.979c3.287,4.05 7.929,6.242 12.4,6.242c4.554,-0 7.342,-1.6 7.342,-5.063c-0,-9.7 -22.95,-4.887 -22.95,-21.342c-0,-8.1 6.75,-12.737 15.354,-12.737c6.329,-0 12.15,2.867 15.779,7.592l-5.737,5.229c-2.446,-2.871 -6.076,-5.229 -10.125,-5.229c-4.046,-0 -6.163,1.683 -6.163,4.637c0,9.621 22.863,4.646 22.863,21.263c-0,8.354 -7.588,13.075 -16.534,13.075c-8.183,-0 -14.258,-3.459 -18.137,-8.688Z" style="fill:#231f20;fill-rule:nonzero;"/><path d="M2174.57,583.983l0,-26.404l-6.412,0l-0,-7.679l6.412,-0l0,-15.692l9.617,0l-0,15.692l9.704,-0l-0,7.679l-9.704,0l-0,23.792c-0,4.637 1.183,6.242 5.571,6.242c1.35,-0 3.033,-0.25 3.795,-0.505l0,7.421c-0.925,0.338 -4.133,0.592 -6.579,0.592c-9.537,-0 -12.404,-3.288 -12.404,-11.138Z" style="fill:#231f20;fill-rule:nonzero;"/><path d="M2204.03,557.579l-6.412,0l-0,-7.679l6.412,-0l0,-5.483c0,-7.338 3.121,-12.405 13.242,-12.405c1.604,0 4.558,0.171 4.895,0.255l0,7.766c-0.337,-0.087 -2.279,-0.17 -2.866,-0.17c-3.208,-0 -5.654,1.008 -5.654,5.229l-0,4.808l8.183,-0l-0,7.679l-8.183,0l-0,37.038l-9.617,-0l0,-37.038Z" style="fill:#231f20;fill-rule:nonzero;"/><path d="M2248.57,582.887l-0,-11.304c-10.546,2.275 -15.184,5.821 -15.184,10.463c0,3.712 2.025,5.483 5.234,5.483c4.133,0 7.504,-2.025 9.95,-4.642Zm-24.546,0.763c-0,-9.367 8.433,-15.608 24.546,-18.65l-0,-1.937c-0,-4.217 -1.605,-5.821 -5.567,-5.821c-4.979,-0 -9.446,2.362 -12.654,5.141l-4.808,-5.904c4.725,-4.383 11.387,-7.504 18.645,-7.504c9.446,-0 13.75,4.808 13.75,14.088l0,20.587c0,5.4 0.338,8.688 1.096,10.967l-9.533,-0c-0.504,-1.688 -0.929,-3.038 -0.929,-5.655c-3.034,3.884 -8.013,6.159 -13.746,6.159c-6.334,-0 -10.8,-4.05 -10.8,-11.471Z" style="fill:#231f20;fill-rule:nonzero;"/><rect x="2267.73" y="532.183" width="9.617" height="62.433" style="fill:#231f20;fill-rule:nonzero;"/><path d="M2311.68,568.379c-0.425,-7.425 -2.954,-11.391 -8.104,-11.391c-4.217,-0 -7.929,3.037 -8.691,11.391l16.795,0Zm-26.329,3.879c0,-16.621 9.2,-23.283 18.313,-23.283c10.037,-0 16.954,7.337 16.954,23.537l-0,2.613l-25.813,-0c0.417,8.438 3.884,12.575 9.446,12.575c4.725,-0 7.429,-2.279 10.213,-6.075l6.075,4.383c-3.379,5.4 -9.454,9.534 -16.709,9.534c-10.291,-0 -18.479,-7.167 -18.479,-23.284Z" style="fill:#231f20;fill-rule:nonzero;"/><path d="M2328.14,549.9l9.617,-0l0,5.821c2.613,-3.204 7.675,-6.746 13.75,-6.746c6.838,-0 10.971,4.3 10.971,12.567l0,33.075l-9.617,-0l0,-30.88c0,-4.387 -1.433,-6.495 -5.15,-6.495c-3.708,-0 -7.929,3.208 -9.954,5.229l0,32.146l-9.617,-0l0,-44.717Z" style="fill:#231f20;fill-rule:nonzero;"/></g></svg>