<?xml version="1.0" encoding="UTF-8" standalone="no"?>
<!DOCTYPE svg PUBLIC "-//W3C//DTD SVG 1.1//EN" "http://www.w3.org/Graphics/SVG/1.1/DTD/svg11.dtd">
<svg width="100%" height="100%" viewBox="0 0 399 400" version="1.1" xmlns="http://www.w3.org/2000/svg" xmlns:xlink="http://www.w3.org/1999/xlink" xml:space="preserve" xmlns:serif="http://www.serif.com/" style="fill-rule:evenodd;clip-rule:evenodd;stroke-linejoin:round;stroke-miterlimit:2;">
    <g id="ArtBoard1" transform="matrix(1.06802,0,0,0.983329,-106.802,-127.833)">
        <rect x="100" y="130" width="372.75" height="406.52" style="fill:none;"/>
        <g id="Ebene_2" transform="matrix(0.936309,0,0,1.01695,26.801,-13.7355)">
            <g>
                <g>
                    <path d="M141.2,265.36L141.13,265.36C139.04,265.29 137.37,264.25 134.33,262.38L125.38,256.87L126.87,254.45L138.21,261.44C138.98,261.92 140.01,262.48 141.06,262.57C142.08,262.67 142.83,262.24 143.11,262.08C143.97,261.58 144.67,260.87 145.3,259.86C146.22,258.36 146.52,256.88 146.13,255.69C145.63,254.21 144.26,253.36 142.93,252.54L132.14,245.89L133.65,243.44L141.73,248.41C142.92,249.14 144.05,249.84 145.2,250.61C146.7,251.6 148.18,252.79 148.83,254.79C149.26,256.17 149.41,258.4 147.65,261.25C146.23,263.55 144.57,264.54 143.43,264.96C143.02,265.12 142.19,265.36 141.2,265.36Z" style="fill-rule:nonzero;"/>
                </g>
                <g>
                    <path d="M154.1,250.57L142.33,241.13L144.14,238.88L157.15,239.69L148.76,233.12L150.37,231.11L162.14,240.55L160.67,242.39L146.92,241.54L155.75,248.52L154.1,250.57Z" style="fill-rule:nonzero;"/>
                </g>
                <g>
                    <path d="M164.45,236.18C163.49,236.18 162.52,235.88 161.57,235.29L161.22,235.07L162.18,232.46L162.72,232.88C164.23,234.06 165.71,233.89 167.24,232.34C167.95,231.62 169.45,229.8 168.05,228.41C167.38,227.75 166.63,227.59 164.76,228.72L162.59,230.04C159.87,231.7 158.05,230.81 157.01,229.78C156.06,228.85 155.64,227.68 155.79,226.42C155.93,225.2 156.61,223.94 157.75,222.79C159.74,220.78 161.77,220.25 164.13,221.13L164.54,221.28L163.91,224.01L163.33,223.7C161.95,222.95 160.6,223.23 159.32,224.53C158.7,225.15 158.34,225.79 158.26,226.36C158.19,226.89 158.37,227.38 158.8,227.8C159.33,228.32 160,228.49 161.56,227.58L164.14,226.08C166.46,224.72 168.26,224.79 169.79,226.31C170.8,227.31 171.25,228.58 171.07,229.98C170.9,231.33 170.15,232.71 168.9,233.97C167.47,235.44 165.96,236.18 164.45,236.18Z" style="fill-rule:nonzero;"/>
                </g>
                <g>
                    <path d="M175.55,227.05L165.9,215.45L174.44,208.34L176.03,210.25L169.53,215.66L171.81,218.4L177.69,213.51L179.26,215.4L173.38,220.29L176,223.44L182.95,217.65L184.54,219.56L175.55,227.05Z" style="fill-rule:nonzero;"/>
                </g>
                <g>
                    <path d="M187.36,217.5L178.93,204.99L183.32,202.04C185.23,200.75 186.07,200.26 186.96,200.03C188.72,199.57 190.55,200.31 191.63,201.91C192.93,203.85 192.66,205.88 190.88,207.71L198.14,210.24L195.33,212.13L188.55,209.58L186.28,211.11L189.58,216.01L187.36,217.5ZM182.49,205.48L184.93,209.11L187.05,207.68C187.19,207.59 187.43,207.42 187.78,207.16C188.74,206.48 189.02,206.24 189.34,205.78C189.86,205.07 189.84,204.24 189.3,203.44C188.91,202.86 188.37,202.54 187.76,202.55C187.33,202.55 187.03,202.61 186.78,202.73C186.23,202.97 185.86,203.22 184.63,204.05L182.49,205.48Z" style="fill-rule:nonzero;"/>
                </g>
                <g>
                    <path d="M209,204.22L200.69,185.18L206,182.86C206.65,182.58 207.27,182.31 207.93,182.05C210.28,181.13 211.98,180.82 214.28,181.8C215.4,182.27 218.21,183.82 220.04,188C220.63,189.36 221.89,192.91 220.71,196.38C220.49,197.03 219.97,198.25 218.97,199.24C217.89,200.3 216.65,200.87 214.18,201.95L209,204.22ZM204.44,186.5L210.59,200.6L212.85,199.61C215.09,198.63 216.52,197.91 217.25,197.07C217.96,196.27 218.18,195.17 218.23,194.86C218.39,194.08 218.62,192.03 217.4,189.22C216.94,188.18 215.63,185.63 213.32,184.48L213.31,184.48C212.9,184.27 212.08,183.93 211.13,183.98C210.06,184.05 209.16,184.45 207.17,185.31L204.44,186.5Z" style="fill-rule:nonzero;"/>
                </g>
                <g>
                    <path d="M228.04,196.49L223.31,182.16L225.86,181.32L230.59,195.65L228.04,196.49Z" style="fill-rule:nonzero;"/>
                </g>
                <g>
                    <path d="M234.99,194.22L231.35,179.58L242.13,176.9L242.73,179.31L234.52,181.35L235.38,184.81L242.8,182.96L243.39,185.34L235.97,187.19L236.96,191.17L245.74,188.99L246.34,191.4L234.99,194.22Z" style="fill-rule:nonzero;"/>
                </g>
                <g>
                    <path d="M249.77,190.74L247.69,175.8L252.04,175.19C254.18,174.89 254.97,174.84 256.04,174.93C259.09,175.21 261.22,177.63 261.75,181.39C262.2,184.59 261.27,187.14 259.14,188.59C258.62,188.96 258.02,189.26 257.37,189.48C256.44,189.75 255.71,189.92 253.81,190.18L249.77,190.74ZM250.67,177.81L252.09,188L253.45,187.81C254.17,187.71 254.74,187.63 255.19,187.54C256.55,187.24 257.5,186.8 258.08,186.18C258.92,185.27 259.26,183.63 259.01,181.78C258.78,180.15 258,178.67 256.96,177.94L256.95,177.93C256.56,177.63 256.1,177.45 255.56,177.37C255,177.29 254.4,177.3 253.78,177.38L250.67,177.81Z" style="fill-rule:nonzero;"/>
                </g>
                <g>
                    <path d="M266.54,188.7L266.04,173.62L277.14,173.25L277.22,175.73L268.77,176.01L268.89,179.57L276.53,179.32L276.61,181.77L268.97,182.02L269.11,186.11L278.15,185.81L278.23,188.29L266.54,188.7Z" style="fill-rule:nonzero;"/>
                </g>
                <g>
                    <path d="M294.72,189.26L291.34,189.03L287.54,182.86L284.8,182.68L284.41,188.58L281.74,188.4L282.74,173.35L288.02,173.7C290.32,173.85 291.29,173.97 292.13,174.34C293.8,175.06 294.8,176.76 294.67,178.69C294.51,181.02 293.05,182.46 290.53,182.82L294.72,189.26ZM284.97,180.28L287.52,180.45C287.68,180.46 287.98,180.48 288.41,180.48C289.59,180.53 289.95,180.51 290.49,180.34C291.33,180.1 291.83,179.43 291.89,178.46C291.94,177.76 291.7,177.18 291.22,176.81C290.88,176.55 290.61,176.41 290.34,176.35C289.75,176.2 289.3,176.17 287.81,176.07L285.26,175.9L284.97,180.28Z" style="fill-rule:nonzero;"/>
                </g>
                <g>
                    <path d="M300.29,190.18L297.64,189.8L299.79,174.87L302.44,175.25L300.29,190.18Z" style="fill-rule:nonzero;"/>
                </g>
                <g>
                    <path d="M313.01,192.92C312.41,192.92 311.79,192.85 311.13,192.7C309.01,192.22 307.38,191.1 306.42,189.46C305.47,187.83 305.23,185.76 305.74,183.49C306.28,181.08 307.39,179.21 308.95,178.1C310.53,176.97 312.52,176.64 314.71,177.13C317.74,177.81 319.35,179.42 319.92,182.34L320.01,182.82L317.27,183.4L317.21,182.85C317,180.9 316.08,179.88 314.13,179.44C310.54,178.63 309.1,181.5 308.53,184.04C307.78,187.38 308.98,189.74 311.73,190.36C313.55,190.77 314.97,190.22 315.98,188.74L316.3,188.27L318.33,190.08L318.02,190.45C317.41,191.18 317.14,191.41 316.65,191.76C315.61,192.54 314.39,192.92 313.01,192.92Z" style="fill-rule:nonzero;"/>
                </g>
                <g>
                    <path d="M333.25,198.96L330.74,198.09L332.88,191.92L325.38,189.32L323.24,195.49L320.71,194.61L325.65,180.36L328.18,181.24L326.18,187.01L333.68,189.61L335.68,183.84L338.18,184.71L333.25,198.96Z" style="fill-rule:nonzero;"/>
                </g>
                <g>
                    <path d="M345.11,204.02C344.07,204.02 342.93,203.75 341.73,203.18C338.7,201.75 337.43,199.51 338.06,196.69L338.15,196.29L340.93,196.33L340.71,196.98C340.1,198.8 340.76,200.14 342.73,201.06C343.65,201.49 345.87,202.3 346.71,200.51C347.11,199.66 347.01,198.9 345.32,197.51L343.35,195.9C340.88,193.88 341.11,191.88 341.74,190.55C342.88,188.14 345.56,187.49 348.57,188.91C351.13,190.12 352.31,191.86 352.26,194.38L352.25,194.82L349.46,195.13L349.56,194.48C349.81,192.93 349.09,191.75 347.44,190.97C346.53,190.54 344.9,190.05 344.18,191.57C343.86,192.24 343.93,192.93 345.3,194.1L347.57,196.04C349.63,197.78 350.16,199.5 349.24,201.44C348.46,203.14 346.96,204.02 345.11,204.02Z" style="fill-rule:nonzero;"/>
                </g>
                <g>
                    <path d="M361.99,214.01L359.13,212.29L358.16,203.68L355.22,204.38L352.77,208.47L350.47,207.09L358.23,194.16L360.53,195.54L356.94,201.53L366.51,199.12L369.64,201L360.71,203.1L361.99,214.01Z" style="fill-rule:nonzero;"/>
                </g>
                <g>
                    <path d="M372.59,220.76C371.11,220.76 369.62,220.25 368.23,219.21C364.74,216.59 364.31,212.27 367.16,208.47C370.03,204.66 374.33,203.88 377.88,206.55C381.4,209.2 381.86,213.32 379.05,217.06C377.23,219.49 374.92,220.76 372.59,220.76ZM373.85,207.46C373.55,207.46 373.24,207.5 372.93,207.57C371.69,207.86 370.49,208.73 369.47,210.09C368.42,211.49 367.89,212.9 367.93,214.18C367.97,215.41 368.56,216.49 369.64,217.29C370.74,218.12 371.96,218.4 373.16,218.12C374.4,217.83 375.61,216.95 376.64,215.58C377.66,214.22 378.17,212.82 378.12,211.52C378.07,210.26 377.49,209.18 376.44,208.39C375.63,207.77 374.75,207.46 373.85,207.46Z" style="fill-rule:nonzero;"/>
                </g>
                <g>
                    <path d="M380.85,229.19L378.89,227.4L387.45,218.03L383.79,214.69L385.41,212.92L394.67,221.38L393.05,223.15L389.41,219.83L380.85,229.19Z" style="fill-rule:nonzero;"/>
                </g>
                <g>
                    <path d="M390.68,239.2L388.89,237.24L398.26,228.7L394.92,225.04L396.69,223.42L405.13,232.68L403.36,234.3L400.04,230.66L390.68,239.2Z" style="fill-rule:nonzero;"/>
                </g>
                <g>
                    <path d="M402.9,254.55L395.88,245.19L407.95,236.14L414.62,245.03L412.63,246.52L407.56,239.76L404.71,241.9L409.3,248.02L407.34,249.49L402.75,243.37L399.47,245.83L404.9,253.07L402.9,254.55Z" style="fill-rule:nonzero;"/>
                </g>
                <g>
                    <path d="M411.41,268.47L410.2,266.45L415.81,253.87L406.18,259.7L404.84,257.44L417.8,249.72L419.28,252.2L413.97,264.1L423.06,258.54L424.38,260.75L411.41,268.47Z" style="fill-rule:nonzero;"/>
                </g>
            </g>
            <path d="M277.09,536.52C169.2,536.52 81.43,448.75 81.43,340.86C81.43,232.97 169.2,145.2 277.09,145.2C384.98,145.2 472.75,232.97 472.75,340.86C472.75,448.75 384.97,536.52 277.09,536.52ZM277.09,154.2C174.17,154.2 90.43,237.93 90.43,340.86C90.43,443.79 174.16,527.52 277.09,527.52C380.02,527.52 463.75,443.79 463.75,340.86C463.75,237.93 380.01,154.2 277.09,154.2Z" style="fill-rule:nonzero;"/>
        </g>
        <g id="Kotten" transform="matrix(0.936309,0,0,1.01695,26.801,-13.7355)">
            <path d="M435.35,395.41L358.15,395.41L358.15,404.17L429.05,404.17C419.21,427.71 404.04,448.5 385.07,465.02C381.71,461.94 374.37,456.57 364.9,457.53C351.78,458.86 333.53,466.04 315.58,464.8C297.63,463.56 255.7,456.48 234.14,454.36C215.7,452.54 184.32,464.24 173.36,468.62C152.4,451.56 135.69,429.46 125.12,404.18L195.35,404.18L195.35,395.42L113.35,395.42C136.23,463.92 200.98,513.44 277.08,513.44C353.18,513.44 417.93,463.92 440.81,395.42L435.35,395.42L435.35,395.41ZM208.17,490.36C212.3,488.91 229.14,483.5 244.45,485.43C262.06,487.65 266.33,490.71 293.63,492.81C320.88,494.9 328.55,483.96 328.55,483.96C328.55,483.96 314.97,486.54 294.61,485.23C274.25,483.92 261.95,479.84 246.41,477.07C226.87,473.59 202.96,482.18 196.84,484.58C192.13,481.94 187.56,479.07 183.14,475.99C187.21,474.17 212.42,463.35 233.62,464.28C256.76,465.3 287.9,473.4 316.03,476.25C348.24,476.25 355.95,465.97 367.89,466.74C373.69,467.11 377.1,468.58 379.07,470C351.01,492.22 315.56,505.5 277.07,505.5C252.49,505.49 229.14,500.07 208.17,490.36Z"/>
            <path d="M300.1,456.5C300.1,456.5 328.76,460.53 330.39,457.39C333.01,449.84 322.5,442.59 319.57,443.13C316.64,443.66 324.62,446.38 318.59,449.03C312.56,451.68 309.09,444.45 309.09,444.45L300.1,456.5"/>
            <path d="M327.21,428.64C325.24,428.95 320.93,441.52 326.09,441.52C331.25,441.52 336.79,437.23 358.2,435.13C379.61,433.03 395.78,437.82 397.05,436.11C398.32,434.4 394.55,425.09 361.57,427.68C346.45,428.73 329.17,428.32 327.21,428.64Z"/>
            <path d="M334.95,453.34C334.95,453.34 346.14,446.5 360.97,445.91C375.8,445.33 382.73,453.87 381.57,454.95C380.41,456.03 371.74,452.04 359.75,453.36C347.25,453.81 340.95,455.8 337.42,455.8C334.95,455.8 334.95,453.34 334.95,453.34Z" style="fill-rule:nonzero;"/>
            <path d="M412.44,367.46L410.03,367.42C405.61,367.34 403.81,354.68 403.81,354.68C403.81,354.68 405.54,351.6 409.45,351.67C413.36,351.74 412.64,356.15 412.64,356.15C412.64,356.15 410.66,362.35 412.53,362.39C414.4,362.42 412.44,367.46 412.44,367.46ZM367.41,382.41C369.7,384.42 447.1,382.34 447.1,382.34C447.1,382.34 444.3,373.93 446.77,372.99C449.25,372.05 449.23,373.03 449.25,372.05C446.11,370.38 434.91,353.55 439.24,353.67C443.57,353.79 447.31,355.29 447.11,353.81C446.74,349.52 431.76,341.27 435.15,334.42C437.38,333.43 439.93,335.62 440.56,334.52C441.19,333.42 434.04,325.76 432.96,321.98C431.88,318.2 436.06,319.99 436.91,318.71C437.76,317.43 433.07,313.23 433.07,313.23C433.07,313.23 428.96,294.96 426.99,295.41C425.01,295.87 419.93,315.16 415.76,318.33C414.98,319.85 417.86,321.07 418.64,322.32C419.42,323.57 412.36,330.91 413.57,331.08C413.69,332.83 415.73,332.52 416.47,334.08C417.07,337.13 415.06,344.72 410.36,345.78C405.66,346.84 402.73,332.36 402.73,332.36C402.73,332.36 409.52,332.35 410.13,331.01C411.81,329.07 394.76,318.25 399.15,312.12C404,310.89 405.89,312.56 406.54,311.27C407.19,309.98 397.11,301.9 397.11,301.9C397.11,301.9 393.49,270.7 391.52,270.67C389.55,270.64 378.62,304.88 378.62,304.88C378.62,304.88 373.81,306.95 372.96,308.75C372.11,310.56 380.7,313.41 379.39,317.19C378.08,320.96 367.58,326.46 368.37,328.41C369.16,330.36 376.2,330.41 376.2,330.41C376.12,336.98 367.05,347.05 367.01,349.43C366.97,351.81 370.97,350.05 372.31,353.47C373.64,356.89 364.03,370.17 367.41,382.41Z" style="fill-rule:nonzero;"/>
            <path d="M232.33,450.41C231.89,448.47 231.89,446.89 232.51,446.07C235.33,442.41 255.32,442.38 256.13,445.34C257.41,447.28 257.18,449.74 256.17,452.3L261.17,452.97L279.3,454.73C277.49,450.71 276.5,447.07 277.46,446.22C281.51,439.35 298.81,445.72 301.5,446.43C303.32,448.29 302.1,452.42 299.74,456.51L304.45,456.91L304.49,456.94C309.35,449.8 312.19,441.17 312.19,431.88C312.19,407.23 292.21,387.25 267.56,387.25C242.91,387.25 222.93,407.23 222.93,431.88C222.93,438.71 224.47,445.17 227.21,450.96L232.33,450.41ZM306.5,437.28C302.89,440.16 283.47,435.42 283.39,432.35C280.71,424.84 296.71,415.66 298.97,414.05C305.13,413.57 310.11,434.4 306.5,437.28ZM272.92,396.16C276.59,391.19 295.59,401.07 295.4,405.68C295.21,410.29 278.91,421.87 276.54,419.92C269.11,417.03 272.65,398.93 272.92,396.16ZM267.08,428.86C267.08,428.86 272.22,422.64 276.96,428.88C281.24,434.51 268.56,445.58 268.56,445.58C268.56,445.58 250.68,433.9 259.44,427.81C264.16,424.53 267.08,428.86 267.08,428.86ZM264.13,395.42C267.57,398.5 266.16,418.44 263.15,419.03C256.19,422.93 244.46,408.7 242.49,406.73C240.98,400.74 260.68,392.34 264.13,395.42ZM235.22,413.6C239.72,412.56 255.2,425.21 253.94,428.01C253.11,435.94 234.73,437.33 231.98,437.8C226.22,435.58 230.72,414.64 235.22,413.6Z" style="fill-rule:nonzero;"/>
            <path d="M174.61,435.26C174.61,435.26 177.83,430.22 186.55,430C195.27,429.78 200.68,431.22 200.68,432.31C200.68,433.4 199.32,431.47 188.56,434.59C177.8,437.72 174.61,435.26 174.61,435.26Z"/>
            <path d="M179.04,441.16C179.47,440.04 188.45,439.55 195.27,439.66C202.09,439.77 210.65,436.55 211.5,437.71C212.35,438.87 207.87,443.84 195.84,444.4C183.81,444.97 178.61,442.28 179.04,441.16Z"/>
            <path d="M176.58,458.37C176.58,458.37 181.45,451.4 193.3,450.01C205.15,448.62 212.97,450.5 212.48,451.98C211.99,453.46 203.89,453.3 195.27,456.08C186.64,458.85 176.58,458.37 176.58,458.37Z"/>
        </g>
        <g id="Ebene_7" transform="matrix(0.936309,0,0,1.01695,26.801,-13.7355)">
            <g>
                <rect x="259.47" y="250.19" width="4.43" height="5.07"/>
                <rect x="259.53" y="256.24" width="4.43" height="5.07"/>
                <rect x="259.47" y="262.3" width="4.43" height="5.07"/>
                <rect x="266.34" y="250.19" width="4.43" height="5.07"/>
                <rect x="266.4" y="256.24" width="4.43" height="5.07"/>
                <rect x="266.34" y="262.3" width="4.43" height="5.07"/>
                <rect x="298.45" y="250.11" width="4.43" height="5.07"/>
                <rect x="298.52" y="256.17" width="4.43" height="5.07"/>
                <rect x="298.45" y="262.23" width="4.43" height="5.07"/>
                <rect x="305.32" y="250.11" width="4.43" height="5.07"/>
                <rect x="305.39" y="256.17" width="4.43" height="5.07"/>
                <rect x="305.32" y="262.23" width="4.43" height="5.07"/>
                <rect x="244.18" y="303.85" width="5.01" height="5.74"/>
                <rect x="244.26" y="310.71" width="5.01" height="5.74"/>
                <rect x="244.18" y="317.56" width="5.01" height="5.74"/>
                <rect x="251.95" y="303.85" width="5.01" height="5.74"/>
                <rect x="252.03" y="310.71" width="5.01" height="5.74"/>
                <rect x="251.95" y="317.56" width="5.01" height="5.74"/>
                <rect x="309" y="304.08" width="5.01" height="5.74"/>
                <rect x="309.08" y="310.93" width="5.01" height="5.74"/>
                <rect x="309" y="317.78" width="5.01" height="5.74"/>
                <rect x="316.77" y="304.08" width="5.01" height="5.74"/>
                <rect x="316.85" y="310.93" width="5.01" height="5.74"/>
                <rect x="316.77" y="317.78" width="5.01" height="5.74"/>
                <rect x="141.11" y="351.76" width="4.11" height="5.54"/>
                <rect x="148.18" y="351.76" width="4.11" height="5.54"/>
                <rect x="141.11" y="358.99" width="4.11" height="5.54"/>
                <rect x="148.18" y="358.99" width="4.11" height="5.54"/>
                <rect x="140.96" y="366.13" width="4.11" height="5.54"/>
                <rect x="148.04" y="366.13" width="4.11" height="5.54"/>
                <rect x="186.29" y="351.08" width="4.43" height="5.97"/>
                <rect x="193.92" y="351.08" width="4.43" height="5.97"/>
                <rect x="186.29" y="358.88" width="4.43" height="5.97"/>
                <rect x="193.92" y="358.88" width="4.43" height="5.97"/>
                <rect x="186.13" y="366.58" width="4.43" height="5.97"/>
                <rect x="193.76" y="366.58" width="4.43" height="5.97"/>
                <rect x="164.63" y="290.13" width="4.43" height="5.97"/>
                <rect x="172.26" y="290.13" width="4.43" height="5.97"/>
                <rect x="164.63" y="297.93" width="4.43" height="5.97"/>
                <rect x="172.26" y="297.93" width="4.43" height="5.97"/>
                <rect x="164.48" y="305.63" width="4.43" height="5.97"/>
                <rect x="172.1" y="305.63" width="4.43" height="5.97"/>
                <path d="M205.83,285.91L205.61,304.79L170.78,268.23L102.06,337.8L109.96,342.6L109.96,388.5L229.35,388.5L229.35,380.42L363.35,380.42L363.35,286.76L362.6,285.98L360.76,285.98L360.76,285.64L285.72,207.2L209.03,285.98L206.15,285.98M315.68,241.72L327.5,254.07L315.68,254.07L315.68,241.72ZM315.68,256.31L329.64,256.31L340.23,267.38L340.23,269.66L315.68,269.66L315.68,256.31ZM312.66,238.56L312.66,245.27L295.42,245.27L295.42,238.44L312.55,238.44L312.66,238.56ZM263.25,325.55L263.25,309.82L278.22,309.82L278.22,325.55L263.25,325.55ZM278.22,328.4L278.22,346.73L263.25,346.73L263.25,328.4L278.22,328.4ZM263.25,306.97L263.25,293.65L278.22,293.65L278.22,306.97L263.25,306.97ZM277.09,291.41L277.09,271.91L283.29,271.91L283.29,291.41L277.09,291.41ZM286.31,254.07L286.31,238.45L292.41,238.45L292.41,254.07L286.31,254.07ZM292.41,256.31L292.41,269.66L286.31,269.66L286.31,256.31L292.41,256.31ZM277.19,236.2L277.19,220.85L293.29,220.85L293.29,236.2L277.19,236.2ZM283.29,238.44L283.29,254.06L277.09,254.06L277.09,238.44L283.29,238.44ZM283.29,256.31L283.29,269.66L277.09,269.66L277.09,256.31L283.29,256.31ZM281.24,328.4L288.36,328.4L288.36,346.73L281.24,346.73L281.24,328.4ZM281.24,325.55L281.24,309.82L288.36,309.82L288.36,325.55L281.24,325.55ZM281.24,306.97L281.24,293.65L288.36,293.65L288.36,306.97L281.24,306.97ZM286.31,291.41L286.31,271.91L292.41,271.91L292.41,291.41L286.31,291.41ZM291.37,328.4L302.74,328.4L302.74,346.73L291.37,346.73L291.37,328.4ZM291.37,325.55L291.37,309.82L302.74,309.82L302.74,325.55L291.37,325.55ZM291.37,306.97L291.37,293.65L302.74,293.65L302.74,306.97L291.37,306.97ZM295.42,291.41L295.42,272.15L312.66,272.15L312.66,291.41L295.42,291.41ZM295.42,269.67L295.42,247.75L312.66,247.75L312.66,269.67L295.42,269.67ZM305.36,328.4L325.46,328.4L325.46,346.73L305.36,346.73L305.36,328.4ZM305.36,325.55L305.36,301.01L325.46,301.01L325.46,325.55L305.36,325.55ZM305.36,298.15L305.36,293.65L325.46,293.65L325.46,298.15L305.36,298.15ZM294.9,220.85L295.72,220.85L310.41,236.2L294.91,236.2L294.91,220.85L294.9,220.85ZM285.61,210.28L294.18,219.24L276.72,219.24L285.61,210.28ZM275.12,220.85L275.58,220.85L275.58,236.2L259.86,236.2L275.12,220.85ZM256.6,239.49L257.64,238.45L274.08,238.45L274.08,245.15L256.6,245.15L256.6,239.49ZM256.6,247.62L273.93,247.62L273.93,269.54L256.6,269.54L256.6,247.62ZM256.6,272.02L274.07,272.02L274.07,291.41L256.6,291.41L256.6,272.02ZM240.39,325.55L240.39,301.01L260.64,301.01L260.64,325.55L240.39,325.55ZM260.64,328.4L260.64,346.73L240.39,346.73L240.39,328.4L260.64,328.4ZM240.39,298.15L240.39,293.65L260.64,293.65L260.64,298.15L240.39,298.15ZM253.59,242.52L253.59,254.06L242.12,254.06L253.59,242.52ZM229.03,267.25L239.89,256.31L253.59,256.31L253.59,269.66L229.2,269.66L229.02,269.84L229.02,267.25L229.03,267.25ZM229.03,271.9L253.59,271.9L253.59,291.4L229.03,291.4L229.03,271.9ZM227.9,325.55L223.07,320.58L219.34,309.82L237.78,309.82L237.78,325.55L227.9,325.55ZM237.77,328.4L237.77,335.72L230.66,328.4L237.77,328.4ZM218.35,306.97L213.73,293.65L237.78,293.65L237.78,306.97L218.35,306.97ZM217.71,315.06L212.62,309.82L215.95,309.82L217.71,315.06ZM209.12,287.29L226.01,270.28L226.01,291.4L209.07,291.4L209.12,287.29ZM209.04,293.65L210.5,293.65L214.98,306.97L209.85,306.97L208.89,305.99L209.04,293.65ZM113.26,385.2L113.26,364.64L124.2,364.64L131.8,385.2L113.26,385.2ZM113.26,361.49L113.26,341.69L115.72,341.71L123.03,361.49L113.26,361.49ZM135.84,385.2L134.96,385.2L127.77,364.64L135.84,364.64L135.84,385.2ZM135.84,361.49L126.67,361.49L119.76,341.75L135.83,341.89L135.83,361.49L135.84,361.49ZM154.39,385.2L138.87,385.2L138.87,377.26L154.39,377.26L154.39,385.2ZM154.39,374.49L138.87,374.49L138.87,348.5L154.39,348.5L154.39,374.49ZM154.39,345.46L138.87,345.46L138.87,341.91L154.39,342.04L154.39,345.46ZM180.25,385.2L157.41,385.2L157.41,364.86L180.25,364.86L180.25,385.2ZM180.25,361.71L157.41,361.71L157.41,342.07L180.25,342.27L180.25,361.71ZM162.07,314.31L162.07,287.43L179,287.43L179,314.31L162.07,314.31ZM200.95,385.2L183.25,385.2L183.25,378.78L200.95,378.78L200.95,385.2ZM200.95,375.75L183.25,375.75L183.25,348.49L200.95,348.49L200.95,375.75ZM200.95,345.46L183.25,345.46L183.25,342.29L200.95,342.44L200.95,345.46ZM203.72,385.2L203.72,364.87L212.35,364.87L205.24,385.2L203.72,385.2ZM203.72,361.71L203.72,342.47L220.13,342.61L213.45,361.7L203.72,361.7L203.72,361.71ZM226.05,385.2L208.42,385.2L215.94,364.87L225.86,364.87L225.72,380.43L226.05,380.43L226.05,385.2ZM226.05,344.44L225.89,361.71L217.1,361.71L224.15,342.65L226.05,342.67L226.05,344.44ZM226.87,341.57L233.03,337.87L170.88,272.64L107.14,337.18L113.36,340.96L113.36,341.58L110.44,341.58L103.87,337.59L170.91,269.71L236.27,338.31L230.84,341.58L226.87,341.58L226.87,341.57ZM229.39,345.97L237.77,341.62L237.77,346.73L229.38,346.73L229.39,345.97ZM360.04,377.13L328.4,377.13L328.4,355.73L310.5,355.73L310.5,377.13L229.56,377.13L229.56,349.23L360.04,349.23L360.04,377.13ZM342.41,309.82L339.67,316.35L337.81,325.54L328.07,325.54L328.07,309.81L342.41,309.81L342.41,309.82ZM328.07,306.97L328.07,293.65L349.19,293.65L343.6,306.97L328.07,306.97ZM337.23,328.4L333.51,346.73L328.07,346.73L328.07,328.4L337.23,328.4ZM360.04,346.73L337.08,346.73L340.79,328.4L360.04,328.4L360.04,346.73ZM360.04,325.55L341.36,325.55L342.7,318.91L346.23,309.82L360.04,309.82L360.04,325.55ZM360.04,306.97L347.34,306.97L352.51,293.65L360.04,293.65L360.04,306.97ZM360.04,291.41L315.67,291.41L315.67,271.91L340.22,271.91L340.22,291.29L343.24,291.29L343.24,271.9L344.55,271.9L360.04,288.09L360.04,291.41Z" style="fill-rule:nonzero;"/>
                <path d="M364.06,287.22L359.52,287.22L359.52,286.14L285.71,208.99L209.55,287.23L203.21,287.23L285.73,202.46L364.05,284.33L364.05,287.22L364.06,287.22ZM360.76,285.98L362.82,285.98L362.82,284.81L285.73,204.23L206.15,285.98L209.03,285.98L285.72,207.2L360.76,285.64L360.76,285.98Z" style="fill-rule:nonzero;"/>
            </g>
        </g>
    </g>
</svg>
